<svg height="512pt" viewBox="0 -11 512 512" width="512pt" xmlns="http://www.w3.org/2000/svg"><path d="m489.921875 377.828125h-467.914063c-5.667968-5.667969-8.84375-8.84375-14.507812-14.507813v-341.3125c5.664062-5.667968 8.839844-8.84375 14.507812-14.507812h467.914063c5.667969 5.664062 8.84375 8.839844 14.507813 14.507812v341.3125c-5.664063 5.664063-8.84375 8.839844-14.507813 14.507813zm0 0" fill="#8ca4b7"/><g fill="#fe512e"><path d="m314.578125 42.492188h154.855469v134.550781h-154.855469zm0 0"/><path d="m42.492188 42.492188h240.84375v134.550781h-240.84375zm0 0"/><path d="m42.492188 208.285156h154.859374v134.546875h-154.859374zm0 0"/></g><path d="m228.589844 208.285156h240.84375v134.546875h-240.84375zm0 0" fill="#fff"/><path d="m504.5 467.859375-497 13.71875v-36.578125h497zm0 0" fill="#fe512e"/><path d="m504.5 422.136719-497-13.71875v36.582031h497zm0 0" fill="#fe512e"/><path d="m378.296875 275.558594c0 16.171875-13.109375 29.28125-29.285156 29.28125-16.171875 0-29.28125-13.109375-29.28125-29.28125 0-16.175782 13.109375-29.285156 29.28125-29.285156 16.175781 0 29.285156 13.109374 29.285156 29.285156zm0 0" fill="#fe512e"/><path d="m84.757812 311.835938h-19.257812v-19.253907c0-29.441406 23.867188-53.304687 53.304688-53.304687h19.257812v19.253906c0 29.441406-23.867188 53.304688-53.304688 53.304688zm0 0" fill="#87e6de"/><path d="m155.085938 239.277344c-5.953126 0-11.675782.992187-17.023438 2.792968v16.464844c0 23.484375-15.191406 43.40625-36.28125 50.511719v2.792969h19.257812c29.4375 0 53.304688-23.867188 53.304688-53.304688v-19.257812zm0 0" fill="#1cb5bb"/><path d="m156.714844 109.769531c0 23.878907-19.355469 43.234375-43.238282 43.234375-23.878906 0-43.234374-19.355468-43.234374-43.234375 0-23.882812 19.355468-43.238281 43.234374-43.238281 23.882813 0 43.238282 19.355469 43.238282 43.238281zm0 0" fill="#feef7f"/><path d="m212.355469 66.53125c-9.195313 0-17.714844 2.878906-24.71875 7.769531 11.191406 7.816407 18.515625 20.78125 18.515625 35.46875 0 14.683594-7.324219 27.648438-18.515625 35.464844 7.003906 4.894531 15.523437 7.769531 24.71875 7.769531 23.878906 0 43.234375-19.359375 43.234375-43.238281s-19.355469-43.234375-43.234375-43.234375zm0 0" fill="#feef7f"/><path d="m162.914062 66.53125c-9.195312 0-17.710937 2.878906-24.71875 7.769531 11.191407 7.816407 18.519532 20.78125 18.519532 35.46875 0 14.683594-7.328125 27.648438-18.519532 35.464844 7.007813 4.894531 15.527344 7.769531 24.71875 7.769531 23.882813 0 43.238282-19.359375 43.238282-43.238281s-19.355469-43.234375-43.238282-43.234375zm0 0" fill="#feef7f"/><path d="m442.007812 109.769531h-100.003906c-2.707031-2.707031-4.222656-4.222656-6.929687-6.929687v-27.710938c2.707031-2.703125 4.222656-4.222656 6.929687-6.925781h100.003906c2.707032 2.703125 4.222657 4.222656 6.929688 6.925781v27.710938c-2.707031 2.707031-4.222656 4.222656-6.929688 6.929687zm0 0" fill="#ffb655"/><path d="m442.007812 151.335938h-100.003906c-2.707031-2.707032-4.222656-4.222657-6.929687-6.929688v-27.710938c2.707031-2.707031 4.222656-4.222656 6.929687-6.925781h100.003906c2.707032 2.703125 4.222657 4.21875 6.929688 6.925781v27.710938c-2.707031 2.707031-4.222656 4.222656-6.929688 6.929688zm0 0" fill="#ffb655"/><path d="m37.496094 363.320312v-341.3125l14.507812-14.507812h-29.996094l-14.507812 14.507812v341.3125c5.664062 5.664063 8.839844 8.84375 14.507812 14.507813h29.996094c-5.667968-5.667969-8.84375-8.84375-14.507812-14.507813zm0 0" fill="#607889"/><path d="m314.578125 42.492188h29.996094v134.550781h-29.996094zm0 0" fill="#c70024"/><path d="m42.492188 42.492188h29.996093v134.550781h-29.996093zm0 0" fill="#c70024"/><path d="m42.492188 208.285156h29.996093v134.546875h-29.996093zm0 0" fill="#c70024"/><path d="m228.589844 208.285156h29.996094v134.546875h-29.996094zm0 0" fill="#d8d7da"/><path d="m37.496094 445h-29.996094v36.578125l29.996094-.828125zm0 0" fill="#c70024"/><path d="m7.5 408.417969v36.582031h29.996094v-35.753906zm0 0" fill="#c70024"/><path d="m349.722656 275.558594c0-10.691406 5.730469-20.046875 14.289063-25.15625-4.386719-2.621094-9.519531-4.128906-15-4.128906-16.171875 0-29.28125 13.113281-29.28125 29.285156s13.109375 29.28125 29.28125 29.28125c5.480469 0 10.613281-1.503906 15-4.125-8.558594-5.113282-14.289063-14.464844-14.289063-25.15625zm0 0" fill="#c70024"/><path d="m95.496094 292.582031c0-25.761719 18.273437-47.253906 42.566406-52.222656v-1.082031h-19.257812c-29.4375 0-53.304688 23.863281-53.304688 53.304687v19.253907h19.257812c3.679688 0 7.269532-.371094 10.738282-1.082032zm0 0" fill="#1cb5bb"/><path d="m100.234375 109.769531c0-18.609375 11.753906-34.46875 28.242187-40.566406-4.671874-1.730469-9.726562-2.671875-15-2.671875-23.878906 0-43.234374 19.355469-43.234374 43.238281 0 23.878907 19.355468 43.234375 43.234374 43.234375 5.273438 0 10.328126-.941406 15-2.671875-16.488281-6.097656-28.242187-21.957031-28.242187-40.5625zm0 0" fill="#ffb655"/><path d="m207.632812 145.234375c11.191407-7.816406 18.519532-20.78125 18.519532-35.464844 0-14.6875-7.328125-27.652343-18.519532-35.46875 4.386719-3.0625 9.359376-5.335937 14.726563-6.605469-3.210937-.761718-6.5625-1.164062-10.003906-1.164062-9.195313 0-17.710938 2.878906-24.71875 7.769531 11.191406 7.816407 18.519531 20.78125 18.519531 35.46875 0 14.683594-7.328125 27.652344-18.519531 35.464844 7.007812 4.894531 15.523437 7.769531 24.71875 7.769531 3.441406 0 6.792969-.402344 10.003906-1.164062-5.367187-1.269532-10.339844-3.542969-14.726563-6.605469zm0 0" fill="#ffb655"/><path d="m158.195312 145.234375c11.191407-7.816406 18.515626-20.78125 18.515626-35.464844 0-14.6875-7.324219-27.652343-18.515626-35.46875 4.382813-3.0625 9.359376-5.335937 14.726563-6.605469-3.210937-.761718-6.5625-1.164062-10.003906-1.164062-9.195313 0-17.714844 2.878906-24.71875 7.769531 11.191406 7.816407 18.515625 20.78125 18.515625 35.46875 0 14.683594-7.324219 27.652344-18.515625 35.464844 7.003906 4.894531 15.523437 7.769531 24.71875 7.769531 3.441406 0 6.792969-.402344 10.003906-1.164062-5.367187-1.269532-10.34375-3.542969-14.726563-6.605469zm0 0" fill="#ffb655"/><path d="m365.074219 102.839844v-27.710938c2.703125-2.703125 4.21875-4.222656 6.925781-6.925781h-29.996094c-2.703125 2.703125-4.222656 4.222656-6.925781 6.925781v27.710938c2.703125 2.707031 4.222656 4.222656 6.925781 6.925781h29.996094c-2.707031-2.703125-4.222656-4.21875-6.925781-6.925781zm0 0" fill="#ff7956"/><path d="m365.074219 144.40625v-27.710938c2.703125-2.707031 4.21875-4.222656 6.925781-6.925781h-29.996094c-2.703125 2.703125-4.222656 4.21875-6.925781 6.925781v27.710938c2.703125 2.707031 4.222656 4.222656 6.925781 6.929688h29.996094c-2.707031-2.707032-4.222656-4.222657-6.925781-6.929688zm0 0" fill="#ff7956"/><path d="m493.027344 385.324219 18.902344-18.898438v-347.527343l-18.902344-18.898438h-474.128906l-18.898438 18.898438v347.527343l18.898438 18.898438zm-478.03125-360.210938 10.117187-10.117187h461.703125l10.113282 10.117187v335.101563l-10.113282 10.113281h-461.703125l-10.117187-10.113281zm0 0"/><path d="m476.933594 34.996094h-169.851563v149.542968h169.851563zm-14.996094 134.546875h-139.859375v-119.550781h139.859375zm0 0"/><path d="m290.835938 34.996094h-255.839844v149.542968h255.839844zm-14.996094 134.546875h-225.847656v-119.550781h225.847656zm0 0"/><path d="m204.847656 200.785156h-169.851562v149.546875h169.851562zm-14.996094 134.546875h-139.859374v-119.550781h139.859374zm0 0"/><path d="m221.09375 350.332031h255.839844v-149.546875h-255.839844zm14.996094-134.550781h225.847656v119.550781h-225.847656zm0 0"/><path d="m0 400.710938v88.574218l512-14.128906v-60.3125zm497.003906 59.855468-482.007812 13.300782v-21.371094h482.007812zm-482.007812-23.066406v-21.371094l482.007812 13.304688v8.066406zm0 0"/><path d="m248.667969 228.78125h15v14.996094h-15zm0 0"/><path d="m276.378906 228.78125h14.996094v14.996094h-14.996094zm0 0"/><path d="m304.089844 228.78125h14.996094v14.996094h-14.996094zm0 0"/><path d="m397.789062 308.054688h15v15h-15zm0 0"/><path d="m425.503906 308.054688h14.996094v15h-14.996094zm0 0"/><path d="m349.011719 238.773438c-20.28125 0-36.78125 16.503906-36.78125 36.785156s16.5 36.78125 36.78125 36.78125c20.285156 0 36.785156-16.5 36.785156-36.78125s-16.5-36.785156-36.785156-36.785156zm0 58.570312c-12.011719 0-21.78125-9.773438-21.78125-21.785156 0-12.015625 9.769531-21.785156 21.78125-21.785156 12.015625 0 21.789062 9.769531 21.789062 21.785156-.003906 12.011718-9.773437 21.785156-21.789062 21.785156zm0 0"/><path d="m145.5625 258.535156v-26.757812h-26.757812c-33.527344 0-60.800782 27.277344-60.800782 60.804687v26.753907h26.753906c33.527344 0 60.804688-27.277344 60.804688-60.800782zm-26.757812-11.757812h11.757812v11.757812c0 25.257813-20.546875 45.804688-45.804688 45.804688h-1.152343l37.453125-37.453125-10.605469-10.605469-37.453125 37.453125v-1.152344c0-25.257812 20.546875-45.804687 45.804688-45.804687zm0 0"/><path d="m113.476562 160.503906c27.976563 0 50.738282-22.761718 50.738282-50.734375 0-27.976562-22.761719-50.738281-50.738282-50.738281-27.972656 0-50.734374 22.761719-50.734374 50.738281 0 27.972657 22.761718 50.734375 50.734374 50.734375zm0-86.476562c19.707032 0 35.742188 16.035156 35.742188 35.742187 0 19.703125-16.035156 35.734375-35.742188 35.734375-19.703124 0-35.738281-16.027344-35.738281-35.734375s16.035157-35.742187 35.738281-35.742187zm0 0"/><path d="m445.117188 158.832031 11.320312-11.320312v-33.921875l-3.820312-3.820313 3.820312-3.820312v-33.925781l-11.320312-11.320313h-106.21875l-11.320313 11.320313v33.925781l3.820313 3.820312-3.820313 3.820313v33.921875l11.320313 11.320312zm-3.679688-17.53125-2.535156 2.535157h-93.792969l-2.535156-2.535157v-21.5l2.535156-2.53125h93.792969l2.535156 2.53125zm-98.863281-63.066406 2.535156-2.535156h93.792969l2.535156 2.535156v21.5l-2.535156 2.535156h-93.792969l-2.535156-2.535156zm0 0"/><path d="m212.355469 74.027344c19.703125 0 35.738281 16.03125 35.738281 35.738281s-16.035156 35.738281-35.738281 35.738281c-.875 0-1.777344-.03125-2.683594-.101562l-1.117187 14.957031c1.273437.09375 2.554687.144531 3.796874.144531 27.976563 0 50.738282-22.761718 50.738282-50.738281 0-27.972656-22.761719-50.734375-50.738282-50.734375-1.230468 0-2.503906.046875-3.792968.144531l1.105468 14.957031c.921876-.070312 1.828126-.105468 2.691407-.105468zm0 0"/><path d="m162.914062 74.027344c19.707032 0 35.742188 16.03125 35.742188 35.738281s-16.035156 35.738281-35.742188 35.738281c-.871093 0-1.773437-.03125-2.679687-.101562l-1.121094 14.957031c1.277344.09375 2.554688.144531 3.800781.144531 27.976563 0 50.738282-22.761718 50.738282-50.738281 0-27.972656-22.761719-50.734375-50.738282-50.734375-1.230468 0-2.503906.046875-3.792968.144531l1.105468 14.957031c.921876-.070312 1.828126-.105468 2.6875-.105468zm0 0"/><path d="m135.335938 302.050781 4.683593 14.25c25.015625-8.21875 41.824219-31.429687 41.824219-57.765625v-26.757812h-23.785156v15h8.785156v11.757812c0 19.839844-12.660156 37.328125-31.507812 43.515625zm0 0"/><path d="m431.882812 96.484375h-29.996093v-15h29.996093zm-39.996093 0h-14.996094v-15h14.996094zm-24.996094 0h-14.996094v-15h14.996094zm0 0" fill="#fff"/></svg>