<?xml version="1.0" encoding="iso-8859-1"?>
<!-- Generator: Adobe Illustrator 21.0.0, SVG Export Plug-In . SVG Version: 6.00 Build 0)  -->
<svg version="1.1" id="Capa_1" xmlns="http://www.w3.org/2000/svg" xmlns:xlink="http://www.w3.org/1999/xlink" x="0px" y="0px"
	 viewBox="0 0 512 512" style="enable-background:new 0 0 512 512;" xml:space="preserve">
<linearGradient id="SVGID_1_" gradientUnits="userSpaceOnUse" x1="74.9807" y1="439.0193" x2="437.0193" y2="76.9807" gradientTransform="matrix(1 0 0 -1 0 514)">
	<stop  offset="0" style="stop-color:#37AD36"/>
	<stop  offset="1" style="stop-color:#3C7438"/>
</linearGradient>
<circle style="fill:url(#SVGID_1_);" cx="256" cy="256" r="256"/>
<linearGradient id="SVGID_2_" gradientUnits="userSpaceOnUse" x1="125.746" y1="308.0975" x2="386.254" y2="308.0975" gradientTransform="matrix(1 0 0 -1 0 514)">
	<stop  offset="0" style="stop-color:#FF832F"/>
	<stop  offset="1" style="stop-color:#FF4F2A"/>
</linearGradient>
<path style="fill:url(#SVGID_2_);" d="M355.059,152.772l-40.83-20.181c-5.865-1.203-11.936-1.835-18.151-1.835H256h-40.078
	c-6.215,0-12.286,0.632-18.151,1.835l-40.83,20.181c-19.096,16.547-31.195,40.967-31.195,68.16v60.117h70.137H256h130.254v-60.117
	C386.254,193.739,374.156,169.319,355.059,152.772z"/>
<g>
	
		<linearGradient id="SVGID_3_" gradientUnits="userSpaceOnUse" x1="156" y1="307.094" x2="347.65" y2="307.094" gradientTransform="matrix(1 0 0 -1 0 514)">
		<stop  offset="0" style="stop-color:#FFAC5A"/>
		<stop  offset="1" style="stop-color:#FF832F"/>
	</linearGradient>
	<path style="fill:url(#SVGID_3_);" d="M156.795,152.902c11.29-9.825,25.041-16.889,40.191-20.139
		c-19.077,16.547-31.162,40.954-31.162,68.13v80.156h-20.039v-80.156C145.785,183.701,149.744,167.417,156.795,152.902z"/>
	
		<linearGradient id="SVGID_4_" gradientUnits="userSpaceOnUse" x1="156" y1="307.094" x2="347.65" y2="307.094" gradientTransform="matrix(1 0 0 -1 0 514)">
		<stop  offset="0" style="stop-color:#FFAC5A"/>
		<stop  offset="1" style="stop-color:#FF832F"/>
	</linearGradient>
	<path style="fill:url(#SVGID_4_);" d="M355.205,152.902c-11.29-9.825-25.041-16.889-40.191-20.139
		c19.077,16.547,31.162,40.954,31.162,68.13v80.156h20.039v-80.156C366.215,183.701,362.256,167.417,355.205,152.902z"/>
	
		<linearGradient id="SVGID_5_" gradientUnits="userSpaceOnUse" x1="156" y1="308.4315" x2="347.65" y2="308.4315" gradientTransform="matrix(1 0 0 -1 0 514)">
		<stop  offset="0" style="stop-color:#FFAC5A"/>
		<stop  offset="1" style="stop-color:#FF832F"/>
	</linearGradient>
	<path style="fill:url(#SVGID_5_);" d="M256,130.756c-38.675,0-70.137,31.461-70.137,70.137v79.488h20.039v-79.488
		c0-27.62,22.47-50.098,50.098-50.098s50.098,22.477,50.098,50.098v79.488h20.039v-79.488
		C326.137,162.217,294.675,130.756,256,130.756z"/>
	
		<linearGradient id="SVGID_6_" gradientUnits="userSpaceOnUse" x1="156" y1="288.3925" x2="347.65" y2="288.3925" gradientTransform="matrix(1 0 0 -1 0 514)">
		<stop  offset="0" style="stop-color:#FFAC5A"/>
		<stop  offset="1" style="stop-color:#FF832F"/>
	</linearGradient>
	<path style="fill:url(#SVGID_6_);" d="M256,170.834c-16.572,0-30.059,13.486-30.059,30.059v79.488h20.039v-79.488
		c0-5.524,4.495-10.02,10.02-10.02c5.525,0,10.02,4.495,10.02,10.02v79.488h20.039v-79.488
		C286.059,184.32,272.572,170.834,256,170.834z"/>
</g>
<g>
	
		<linearGradient id="SVGID_7_" gradientUnits="userSpaceOnUse" x1="139.67" y1="152.795" x2="367.76" y2="152.795" gradientTransform="matrix(1 0 0 -1 0 514)">
		<stop  offset="0" style="stop-color:#FFAC5A"/>
		<stop  offset="1" style="stop-color:#FF832F"/>
	</linearGradient>
	<polygon style="fill:url(#SVGID_7_);" points="306.766,331.146 306.766,371.225 306.766,391.264 386.922,391.264 386.922,371.225 
		386.922,331.146 	"/>
	
		<linearGradient id="SVGID_8_" gradientUnits="userSpaceOnUse" x1="139.67" y1="152.795" x2="367.76" y2="152.795" gradientTransform="matrix(1 0 0 -1 0 514)">
		<stop  offset="0" style="stop-color:#FFAC5A"/>
		<stop  offset="1" style="stop-color:#FF832F"/>
	</linearGradient>
	<polygon style="fill:url(#SVGID_8_);" points="125.078,331.146 125.078,371.225 125.078,391.264 205.234,391.264 205.234,371.225 
		205.234,331.146 	"/>
</g>
<linearGradient id="SVGID_9_" gradientUnits="userSpaceOnUse" x1="85" y1="202.8925" x2="427" y2="202.8925" gradientTransform="matrix(1 0 0 -1 0 514)">
	<stop  offset="0" style="stop-color:#FFC58C"/>
	<stop  offset="1" style="stop-color:#FFAC5A"/>
</linearGradient>
<polygon style="fill:url(#SVGID_9_);" points="256,271.029 85,271.029 85,351.186 256,351.186 427,351.186 427,271.029 "/>
<g>
</g>
<g>
</g>
<g>
</g>
<g>
</g>
<g>
</g>
<g>
</g>
<g>
</g>
<g>
</g>
<g>
</g>
<g>
</g>
<g>
</g>
<g>
</g>
<g>
</g>
<g>
</g>
<g>
</g>
</svg>
