<svg id="outline" height="512" viewBox="0 0 512 512" width="512" xmlns="http://www.w3.org/2000/svg"><path d="m504 192v-40.082c0-61.856-111.033-112-248-112s-248 50.144-248 112v40.082z" fill="#d38f29"/><path d="m8 188v172.082c0 61.856 111.033 112 248 112s248-50.144 248-112v-172.082z" fill="#d38f29"/><path d="m503.85 188.09c-4.48 60.08-113.73 108.16-247.85 108.16s-243.37-48.08-247.85-108.16c4.46-60.09 113.72-108.17 247.85-108.17s243.39 48.08 247.85 108.17z" fill="#d3a126"/><path d="m256 296.25c-126.593 0-231.011-42.837-246.1-98.167a52.87 52.87 0 0 0 -1.75 10.007c4.48 60.08 113.73 108.16 247.85 108.16s243.37-48.08 247.85-108.16a52.87 52.87 0 0 0 -1.748-10.007c-15.091 55.33-119.509 98.167-246.102 98.167z" fill="#d3a126"/><path d="m256 99.92c126.593 0 231.015 42.831 246.1 98.163a52.875 52.875 0 0 0 1.748-9.993c-4.458-60.09-113.718-108.17-247.848-108.17s-243.39 48.08-247.85 108.17a52.875 52.875 0 0 0 1.75 9.993c15.085-55.332 119.507-98.163 246.1-98.163z" fill="#3d1603" opacity=".5"/><path d="m504 247.918c0 61.856-111.033 112-248 112s-248-50.144-248-112v-63.667c0 61.856 111.033 112 248 112s248-50.144 248-112z" fill="#e2a049"/><path d="m159 216c-57.029 0-103.066 5.253-103.066-50.788 0-37.751 53.313-71.309 83.9-88.786 14.817-8.467 19.361-12.684 19.361-12.684s4.544 4.217 19.361 12.684c17.805 10.174 54.236 33.845 72.444 52.574z" fill="#bcbbbb"/><path d="m365.648 215.956c57.029 0 90.352 5.167 90.352-50.828 0-37.72-53.313-71.25-83.9-88.713-14.817-8.46-19.361-12.673-19.361-12.673s-4.544 4.213-19.361 12.673c-17.804 10.167-47.17 25.872-65.378 44.585z" fill="#bcbbbb"/><path d="m174.064 73.805c-11.258-6.714-14.87-10.063-14.87-10.063s-4.544 4.217-19.361 12.684c-30.585 17.477-83.9 51.035-83.9 88.786 0 41.335 25.049 49.322 61.079 50.669-16-61.116 38.541-123.191 57.052-142.076z" fill="#fcfcfc" opacity=".3"/><path d="m372.1 76.416c-14.817-8.46-19.361-12.673-19.361-12.673s-4.544 4.213-19.361 12.673c-17.804 10.166-47.17 25.871-65.378 44.584l53.127 51.662c8.047-41.126 37.988-77.623 53.856-94.592q-1.471-.849-2.883-1.654z" fill="#fcfcfc" opacity=".3"/><path d="m365.713 212.315c0 57.029-46.231 51.63-103.26 51.63s-103.26 5.4-103.26-51.63c0-38.417 53.313-72.567 83.9-90.352 14.817-8.616 19.361-12.907 19.361-12.907s4.544 4.291 19.361 12.907c30.585 17.785 83.898 51.937 83.898 90.352z" fill="#dddcdb"/><path d="m277.727 119.54c-11.578-7-15.273-10.485-15.273-10.485s-4.544 4.291-19.361 12.907c-30.585 17.785-83.9 51.935-83.9 90.352 0 39.07 21.7 48.838 53.7 51.116-17.182-78.93 45.825-130.4 64.834-143.89z" fill="#fcfcfc" opacity=".3"/><path d="m8.15 188.09c-.1 1.27-.15 2.55-.15 3.83v-7.67q0 1.935.15 3.84z" fill="#e2a049"/><path d="m504 184.25v7.67c0-1.28-.05-2.56-.15-3.83q.15-1.905.15-3.84z" fill="#e2a049"/><path d="m79.5 438.75c-44.21-20.23-71.5-48.01-71.5-78.67v-172.08h.14c2.09 28.77 28.22 54.8 69.6 74.11-1.45 15.18-3.24 37.21-4.2 61.66-1.48 38.05-.96 81.95 5.96 114.98z" fill="#fcfcfc" opacity=".3"/><path d="m217.248 152.686.03 16a55.721 55.721 0 0 0 16.244-2.831c11.982-3.994 20.147-11.6 23.614-22l-15.179-5.06c-4.526 13.577-24.508 13.889-24.709 13.891z"/><path d="m282.951 138.794-15.179 5.06c8.183 24.549 38.568 24.832 39.858 24.832l.03-16c-.201-.002-20.183-.314-24.709-13.892z"/><path d="m130.262 120.542c11.982-3.994 20.147-11.6 23.614-22l-15.176-5.061c-4.526 13.577-24.508 13.89-24.709 13.891l.03 16a55.721 55.721 0 0 0 16.241-2.83z"/><path d="m204.37 123.373.03-16c-.2 0-20.184-.314-24.709-13.891l-15.179 5.06c8.183 24.548 38.569 24.831 39.858 24.831z"/><path d="m373.223 92.854-15.15 5.146c8.2 24.161 38.556 24.438 39.844 24.438v-16c-.201-.002-20.209-.372-24.694-13.584z"/><path d="m307.535 106.436.029 16c1.288 0 31.642-.278 39.844-24.438l-15.15-5.144c-4.508 13.277-24.521 13.581-24.723 13.582z"/><path d="m77.345 446.569c47.855 21.611 111.301 33.513 178.655 33.513s130.8-11.9 178.655-33.513c49.877-22.525 77.345-53.24 77.345-86.487v-208.164c0-33.247-27.468-63.962-77.345-86.487-47.855-21.611-111.301-33.513-178.655-33.513s-130.8 11.902-178.655 33.513c-49.877 22.525-77.345 53.24-77.345 86.487v208.164c0 33.247 27.468 63.962 77.345 86.487zm350.725-190.413a291.872 291.872 0 0 1 -28.07 10.894v-43.064c20.225-.441 36.635-2.731 48-12.393v34.33a215.052 215.052 0 0 1 -19.93 10.233zm-329.797-142.421q18.061-14.658 45.527-30.363c7.2-4.113 12.134-7.309 15.392-9.586 3.258 2.277 8.194 5.473 15.392 9.586 15.463 8.836 37.147 22 54.214 37.787-13.656 8.329-30.232 19.37-44.5 32.318-20.308 18.427-31.353 36.737-32.906 54.5-1.985.012-3.962.026-5.915.041-31.67.246-59.073.5-71.959-12.383-12.368-12.37-9.518-32.304-9.518-32.304.877-15.207 12.348-31.792 34.239-49.568l.039-.015zm315.452.016c22.775 18.485 34.275 35.683 34.275 51.378 0 16.21-2.99 27.058-9.142 33.163-10.184 10.106-31 9.945-59.814 9.731-1.812-.014-3.66-.027-5.528-.039-1.55-17.763-12.6-36.077-32.907-54.507-17.974-16.309-39.62-29.609-54.458-38.247 12.174-10.93 25.759-18.168 38.949-25.194 4.269-2.273 8.3-4.421 12.245-6.673 7.2-4.111 12.136-7.3 15.394-9.58 3.258 2.275 8.195 5.47 15.395 9.58q27.388 15.637 45.44 30.264l-.022.057zm-137.554 142.265c-4.489-.035-9.067-.071-13.718-.071s-9.229.036-13.718.071c-31.525.246-58.709.412-71.743-12.428-12.48-12.295-9.8-29.979-9.8-31.272 0-24.527 26.889-52.6 79.92-83.437 7.159-4.163 12.082-7.4 15.339-9.717 3.258 2.314 8.18 5.554 15.34 9.717 53.031 30.837 79.92 58.91 79.92 83.437 0 14.5-3.205 24.73-9.8 31.272-12.983 12.886-40.211 12.676-71.74 12.428zm11.829-162.616v-4.829q3.288.194 6.559.433-3.286 2.096-6.559 4.396zm-16 12.919c-2.891-2.038-4.053-3.076-4.054-3.075a7.791 7.791 0 0 0 -10.928-.054c-.039.035-3.62 3.24-13.934 9.479-3.521-3.445-7.243-6.767-11.085-9.961v-14.55q11.933-.526 24-.527 8.02 0 16 .234zm-56-15.819c-.592-.417-1.184-.84-1.776-1.25.593-.046 1.182-.1 1.776-.145zm-167.667 68.582a52.608 52.608 0 0 0 -.4 6.13c0 1.233.065 70.108.065 70.108-19.243-14.564-30.375-30.921-31.821-47.4 1.668-19.444 16.389-38.3 41.922-54.449q-8.15 12.934-9.766 25.611zm15.667 49.544c8.354 7.415 19.266 11.318 32 13.344v39.276q-6.191-2.445-12.07-5.09a215.052 215.052 0 0 1 -19.93-10.233zm48 14.974c6.677.377 13.7.48 20.986.48 4.123 0 8.335-.032 12.614-.065q3.112-.024 6.284-.044c.038.311.074.625.116.933v52.919a374.313 374.313 0 0 1 -40-10.774zm56 33.43c11.793 10.147 28.438 13.544 48 14.6v15.152c-16.5-1.218-32.573-3.184-48-5.87zm64 15.035c5.469.036 11.1-.006 16.861-.051 7.562-.059 15.469-.065 23.139-.023v16.021q-7.954.23-16 .238-12.1 0-24-.522zm56 .013h.671c14.342 0 27.647-.4 39.329-2.553v13.88c-12.987 1.8-26.358 3.107-40 3.906zm56-7.158a47.491 47.491 0 0 0 15.184-9.975c7.651-7.591 12.21-17.794 13.838-30.964q3 .018 5.9.041c1.715.013 3.4.025 5.076.035v47.872a409.957 409.957 0 0 1 -40 8.985zm120-104.838h-.269q-1.378-13.154-9.878-26.643c25.563 16.155 40.3 35.02 41.969 54.479-1.446 16.481-12.578 32.838-31.821 47.4zm31.9-10.932c-15.03-19.037-40.205-36.025-73.817-49.3-16.025-12.77-33.5-23.236-46.015-30.381-12.1-6.909-16.913-10.777-17.741-11.469 25.635 5.35 49.224 12.746 69.743 22.013 41.65 18.81 66.155 43.867 67.83 69.137zm-146.174-92.858a8.155 8.155 0 0 0 -2.367 1.532c-.043.039-4.512 3.975-17.946 11.646-3.343 1.909-6.851 3.79-10.529 5.75a552.677 552.677 0 0 0 -126.409.075c-3.5-2.094-6.852-4.043-9.95-5.814a212.559 212.559 0 0 1 -20.269-13.181 511.588 511.588 0 0 1 93.744-8.382 511.6 511.6 0 0 1 93.726 8.374zm-265.796 23.721c20.495-9.256 44.051-16.645 69.651-21.994-1.058.878-5.944 4.734-17.717 11.461-12.509 7.148-29.972 17.62-45.989 30.386-33.589 13.272-58.751 30.255-73.775 49.285 1.674-25.27 26.179-50.328 67.83-69.138zm-67.93 146.76c13.019 16.523 33.743 31.5 61.345 43.965 47.855 21.612 111.301 33.513 178.655 33.513s130.8-11.9 178.655-33.513c10.105-4.563 29.345-15.824 29.345-15.824 13.383-8.667 24.1-18.12 32-28.14v21.145c0 26.2-24.76 52.409-67.93 71.9-45.829 20.7-106.937 32.1-172.07 32.1s-126.241-11.4-172.07-32.1c-43.17-19.5-67.93-45.7-67.93-71.9zm0 63.667c13.019 16.523 33.743 31.5 61.345 43.965 47.855 21.611 111.301 33.513 178.655 33.513s130.8-11.9 178.655-33.513c27.6-12.465 48.326-27.442 61.345-43.965v69.642c0 26.2-24.76 52.409-67.93 71.9-45.829 20.7-106.937 32.1-172.07 32.1s-126.241-11.4-172.07-32.1c-43.17-19.5-67.93-45.7-67.93-71.9z"/></svg>