<svg id="outline" height="512" viewBox="0 0 512 512" width="512" xmlns="http://www.w3.org/2000/svg"><path d="m64 400 10.309 10.309a156 156 0 0 0 110.308 45.691h140.768a156 156 0 0 0 102.727-38.6l19.888-17.4z" fill="#bcbbbb"/><ellipse cx="256" cy="360" fill="#dddcdb" rx="248" ry="64"/><path d="m56 344s16 16 80 16c0 0 0 32 72 16v-16h235.88a12.12 12.12 0 0 0 12.12-12.12 12.12 12.12 0 0 0 -11.878-12.118l-388.122-7.762z" fill="#bcbbbb"/><path d="m104 352h336l11.612-29.029a8 8 0 0 0 -7.428-10.971h-68.184c-1.6-1.6-3.22-3.4-4.854-5.348-26.728-31.864-65.89-50.652-107.48-50.652h-111.666s-58.422-6.491-116.793 44.846a23.5 23.5 0 0 0 2.208 36.875c10.585 7.387 55.447 14.279 66.585 14.279z" fill="#d38f29"/><path d="m288 96h16v16h-16z" fill="#d38f29"/><path d="m144 352 4.125 6.188a40 40 0 0 0 33.282 17.812h26.593l-16-24z" fill="#bc7d2a"/><path d="m144 288h48l8 24h-48" fill="#bc7d2a"/><path d="m235.314 171.314 1.373 1.373a16 16 0 0 1 0 22.627l-1.373 1.373a16 16 0 0 0 0 22.627l.3.3a16 16 0 0 0 23.605-1.071l11.712-14.054a32 32 0 0 0 0-40.972l-11.715-14.057a16 16 0 0 0 -23.605-1.071l-.3.3a16 16 0 0 0 .003 22.625z" fill="#9b5e15"/><path d="m124.827 180.53-1.373 1.373a16 16 0 0 1 -22.627 0l-1.373-1.373a16 16 0 0 0 -22.627 0l-.3.3a16 16 0 0 0 1.073 23.602l14.054 11.712a32 32 0 0 0 40.972 0l14.054-11.712a16 16 0 0 0 1.071-23.605l-.3-.3a16 16 0 0 0 -22.624.003z" fill="#9b5e15"/><circle cx="152" cy="120" fill="#d38f29" r="16"/><circle cx="384" cy="232" fill="#d38f29" r="16"/><path d="m352 136h24a0 0 0 0 1 0 0v24a16 16 0 0 1 -16 16h-24a0 0 0 0 1 0 0v-24a16 16 0 0 1 16-16z" fill="#79c143"/><path d="m192 48h24a16 16 0 0 1 16 16v24a0 0 0 0 1 0 0h-24a16 16 0 0 1 -16-16v-24a0 0 0 0 1 0 0z" fill="#79c143" transform="matrix(-1 0 0 -1 424 136)"/><path d="m325.628 270.675a138.533 138.533 0 0 0 -61.961-14.675h-111.667s-58.422-6.491-116.793 44.846a23.486 23.486 0 0 0 .073 35.2c37.145-74.409 229.629-69.011 290.348-65.371z" fill="#f7c889" opacity=".5"/><path d="m60.453 407.767 8.2 8.2a162.928 162.928 0 0 0 115.964 48.033h140.769a163.95 163.95 0 0 0 107.994-40.578l17.734-15.517c30.846-9.844 60.886-25.248 60.886-47.905 0-14.857-12.759-28.082-37.921-39.307l-6.518 14.612c18.074 8.063 28.439 17.064 28.439 24.695 0 9.819-17.506 24.83-66.637 37.509-46.207 11.924-107.775 18.491-173.363 18.491s-127.156-6.567-173.363-18.491c-49.131-12.679-66.637-27.69-66.637-37.509h-16c0 22.551 29.759 37.917 60.453 47.767zm355.407 9.349a147.953 147.953 0 0 1 -90.474 30.884h-140.769a146.876 146.876 0 0 1 -91.3-31.5c45.417 10.03 102.463 15.5 162.683 15.5 58.979 0 114.911-5.247 159.86-14.884z"/><path d="m264 384h16v16h-16z"/><path d="m79 297h16v16h-16z"/><path d="m360 376h16v16h-16z"/><path d="m288 96h16v16h-16z"/><path d="m32.837 344.281c12.925 9.019 59.763 15.719 71.163 15.719h35.719l1.75 2.625a47.9 47.9 0 0 0 39.938 21.375h26.593a8 8 0 0 0 6.656-12.437l-7.708-11.563h238.468l13.623-34.057a16 16 0 0 0 -14.855-21.943h-64.746q-1.05-1.162-2.163-2.489c-28.525-34.011-69.934-53.511-113.609-53.511h-111.266c-6.333-.586-64.295-4.329-122.472 46.839a31.5 31.5 0 0 0 2.913 49.442zm160.215 23.719h-11.645a31.934 31.934 0 0 1 -21.175-8h27.486zm-152.562-61.146c28.394-24.973 56.926-35.589 77.906-40.024 12.357 16.12 33.6 48.2 33.6 69.17h16a61.689 61.689 0 0 0 -2.376-16h34.38a8 8 0 0 0 7.59-10.53l-8-24a8 8 0 0 0 -7.59-5.47h-45.072c-3.7-5.948-7.386-11.34-10.612-15.829 3.821-.315 7.01-.41 9.433-.41 3.372 0 60.59.239 60.59.239 6.32 2.87 33.661 16.638 33.661 40h16c0-17.634-9.816-30.881-20.288-40h27.954q3.562 0 7.1.2c7.047 3.262 33.234 16.94 33.234 39.8h16c0-13.285-5.571-24.082-12.8-32.5a133.833 133.833 0 0 1 57.813 40.291c1.878 2.239 3.62 4.158 5.326 5.863l2.347 2.346h71.5l-9.6 24h-330.586c-11.991 0-53.831-7.135-62.007-12.84a15.537 15.537 0 0 1 -6.659-11.941 15.224 15.224 0 0 1 5.156-12.365zm115.518-10.854h30.227l2.666 8h-29.078c-1.193-2.692-2.473-5.366-3.815-8z"/><path d="m229.954 142.732-.3.3a24 24 0 0 0 0 33.94l1.373 1.373a8 8 0 0 1 0 11.313l-1.373 1.373a24 24 0 0 0 0 33.94l.3.3a24.056 24.056 0 0 0 16.978 7.029q.539 0 1.08-.024a24.054 24.054 0 0 0 17.351-8.611l11.712-14.055a39.993 39.993 0 0 0 0-51.214l-11.712-14.055a24 24 0 0 0 -35.408-1.606zm23.117 11.849 11.712 14.054a24 24 0 0 1 0 30.729l-11.712 14.055a8 8 0 0 1 -11.8.536l-.3-.3a8.009 8.009 0 0 1 0-11.313l1.373-1.373a24.027 24.027 0 0 0 0-33.94l-1.373-1.373a8.009 8.009 0 0 1 0-11.313l.3-.3a7.9 7.9 0 0 1 5.642-2.343c.125 0 .251 0 .377.008a7.913 7.913 0 0 1 5.781 2.873z"/><path d="m72.479 210.579 14.055 11.712a39.991 39.991 0 0 0 51.214 0l14.052-11.713a24 24 0 0 0 1.609-35.4l-.3-.3a24.028 24.028 0 0 0 -33.94 0l-1.372 1.373a8.01 8.01 0 0 1 -11.313 0l-1.374-1.374a24.03 24.03 0 0 0 -33.945 0l-.292.292a24 24 0 0 0 1.605 35.409zm9.712-24.1.292-.292a8.009 8.009 0 0 1 11.313 0l1.374 1.374a24.029 24.029 0 0 0 33.942 0l1.37-1.371a8.01 8.01 0 0 1 11.311 0l.3.3a8 8 0 0 1 -.535 11.8l-14.052 11.71a24 24 0 0 1 -30.729 0l-14.054-11.713a8 8 0 0 1 -.531-11.808z"/><path d="m152 144a24 24 0 1 0 -24-24 24.027 24.027 0 0 0 24 24zm0-32a8 8 0 1 1 -8 8 8.009 8.009 0 0 1 8-8z"/><path d="m360 232a24 24 0 1 0 24-24 24.027 24.027 0 0 0 -24 24zm32 0a8 8 0 1 1 -8-8 8.009 8.009 0 0 1 8 8z"/><path d="m338.319 184h21.681a24.027 24.027 0 0 0 24-24v-32h-32a24.027 24.027 0 0 0 -24 24v19.794c-6.015 4.774-16 15.774-16 36.206h16c0-14.772 7.228-21.708 10.319-24zm5.681-32a8.009 8.009 0 0 1 8-8h16v16a8.009 8.009 0 0 1 -8 8h-16z"/><path d="m208 96h21.681c3.091 2.292 10.319 9.228 10.319 24h16c0-20.433-9.985-31.432-16-36.206v-19.794a24.027 24.027 0 0 0 -24-24h-32v32a24.027 24.027 0 0 0 24 24zm-8-40h16a8.009 8.009 0 0 1 8 8v16h-16a8.009 8.009 0 0 1 -8-8z"/></svg>