<svg id="outline" height="512" viewBox="0 0 512 512" width="512" xmlns="http://www.w3.org/2000/svg"><path d="m512 52h-392v24h392" fill="#d38f29"/><path d="m512 132h-408v-24h408" fill="#d38f29"/><path d="m296 300v-240a16 16 0 0 0 -16-16h-104a16 16 0 0 0 -16 16v240z" fill="#dbd06a"/><path d="m209 294.048v-191.048c-.629-37.739 31.344-52.924 43-59h-76a16 16 0 0 0 -16 16v234.048z" fill="#fcfcfc" opacity=".3"/><path d="m384 268 56-44 16 21.1a50 50 0 0 1 -27.639 44.721l-4.361 2.179z" fill="#e2e2e0"/><path d="m440 224 24-48 8 48 32 16-48 5.098z" fill="#e89f36"/><path d="m53 401 21.309 21.309a156 156 0 0 0 110.308 45.691h140.768a156 156 0 0 0 102.727-38.6l27.888-25.4z" fill="#ccc"/><path d="m440 315.725c39.776 12.771 64 29.7 64 48.275 0 39.765-111.033 72-248 72s-248-32.235-248-72c0-18.573 24.224-35.5 64-48.275" fill="#e2e2e0"/><path d="m154 271-34-59-8 40-48 16 48 19z" fill="#e89f36"/><path d="m400 348s64 8 40-40-112-49.059-112-49.059h-76v89.059z" fill="#d3be26"/><path d="m98.343 154.461c-15.621-15.621-46.6-9.964-62.225 5.657s-21.278 46.6-5.657 62.225l11.314-11.314a16 16 0 0 1 22.627 0l16.971 16.971 22.627-22.627-16.971-16.973c-6.248-6.248-11.905-10.722-5.657-16.971z" fill="#aa6f21"/><path d="m263.92 239.4.081 4.734a49.706 49.706 0 0 0 37.175 47.4l3.454.919 19.87-13.022a24.124 24.124 0 0 0 11.5-20.49v-60.727z" fill="#ccccca"/><path d="m305.291 276.073a33.708 33.708 0 0 1 -25.291-32.21l-.232-13.515-78.768 45.009v38.527l78.619-5.036 42.981-28.17z" fill="#eaeae8"/><path d="m201 275.357v5.662l20 10.981c81.04-18.33 112.745-88.774 114.879-93.717z" fill="#fcfcfc" opacity=".3"/><path d="m48 348s-16 24 16 24h88l96-4v-70.425a123.067 123.067 0 0 0 -192 42.425z" fill="#e0c714"/><path d="m404.335 366.6c0 41.2-55.666 37.3-124.335 37.3s-124.335 3.9-124.335-37.3 55.667-74.6 124.335-74.6 124.335 33.4 124.335 74.6z" fill="#ead934"/><path d="m313.26 404c-4.544 0-9.2-.03-13.944-.061-5.011-.032-10.123-.065-15.316-.065s-10.305.033-15.318.065c-4.746.031-9.4.061-13.943.061-19.638 0-41.679-.459-54.681-5.952-8.058-3.404-8.058-5.518-8.058-10.148 0-30.163 39.345-63.9 92-63.9 26.224 0 51.55 8.572 69.484 23.52 14.309 11.927 22.516 26.644 22.516 40.38 0 4.63 0 6.743-8.06 10.148-13.005 5.492-35.04 5.952-54.68 5.952z" fill="#d3a126"/><path d="m300.355 404.063q-4.742 0-9.7-.031-5.229-.023-10.655-.032t-10.656.033q-4.953.023-9.7.031c-13.661 0-28.994-.23-38.039-2.981-5.605-1.705-5.605-2.764-5.605-5.083 0-15.105 27.37-32 64-32 18.243 0 35.861 4.293 48.336 11.779 9.955 5.972 15.664 13.343 15.664 20.221 0 2.319 0 3.377-5.607 5.082-9.047 2.751-24.378 2.981-38.038 2.981z" fill="#efe885"/><g fill="#fcfcfc"><path d="m316.934 295.347a201.972 201.972 0 0 0 -36.934-3.347c-68.668 0-124.335 33.4-124.335 74.6 0 30.051 29.619 36.107 72.293 37.185-12.206-72.785 57.326-99.94 88.976-108.438z" opacity=".3"/><path d="m164.793 268.059a123.293 123.293 0 0 0 -108.793 71.941l-8 8s-16 24 16 24h46.184c2.827-55.927 40.577-92.291 54.609-103.941z" opacity=".3"/><path d="m80.055 145.694c-15.26-2.323-33.216 3.7-43.937 14.423-10.81 10.81-16.842 28.976-14.359 44.318 39.104-9.77 53.625-43.435 58.296-58.741z" opacity=".3"/></g><path d="m296 244h16v16h-16z"/><path d="m30.461 233.657 16.97-16.971a8.009 8.009 0 0 1 11.314 0l22.627 22.627 33.941-33.941-24.213-24.198a5.723 5.723 0 0 1 -.032-8.124l18.59-18.589-5.658-5.661c-9.058-9.058-22.458-13.028-37.733-11.172-13.524 1.642-26.91 7.933-35.806 16.829s-15.187 22.281-16.829 35.806c-1.854 15.278 2.114 28.678 11.168 37.737zm55.458-78.086-10.2 10.2c-3.373 3.373-5.075 7.1-5.059 11.069.026 6.683 4.718 11.3 9.256 15.771.479.471.967.952 1.459 1.444l11.314 11.314-11.316 11.318-11.314-11.314a24.027 24.027 0 0 0 -33.941 0l-4.547 4.547c-2.753-6.328-3.008-14.16-1.381-21.789l.271.271c7.593-7.592 20.022-3.748 20.146-3.708l2.481-7.605 2.53-7.589a43.252 43.252 0 0 0 -15.725-1.681c.607-.713 1.234-1.4 1.882-2.044 10.703-10.704 30.779-16.022 44.144-10.204z"/><path d="m68.652 427.965a162.926 162.926 0 0 0 115.965 48.035h140.768a163.951 163.951 0 0 0 107.995-40.578l23.155-20.455c36.397-13.893 55.465-31.312 55.465-50.967 0-20.719-21.428-39.094-62.08-53.376-.791-2.015-1.7-4.079-2.765-6.2a65.376 65.376 0 0 0 -7.72-11.924 57.529 57.529 0 0 0 24.111-40.157l41.3-4.386a8 8 0 0 0 2.733-15.11l-28.356-14.178-7.33-43.982a8 8 0 0 0 -15.046-2.262l-23.2 46.4-51.286 40.3a233.356 233.356 0 0 0 -46.361-7.825v-30.356l29.657-15.287c15.287-15.287 14.383-30.835 10.933-41.187a49.736 49.736 0 0 0 -10.933-18.127l-11.313 11.313a34.3 34.3 0 0 1 7.067 11.873c2.871 8.613.843 16.448-6.2 23.921l-11.228 5.614c2.024-9.115.869-19.538-3.516-30.937a104.793 104.793 0 0 0 -14.22-25.127l-12.5 9.986c.271.34 26.55 33.865 9.273 52.644l-19.02 10.87v-76.5h208v-16h-208v-8h208v-16h-208v-16h208v-16h-208v-8h208v-16h-214.131a23.943 23.943 0 0 0 -17.869-8h-104a23.943 23.943 0 0 0 -17.869 8h-46.131v40h40v16h-56v40h56v111.876l-25.054-43.845a8 8 0 0 0 -14.791 2.4l-7.089 35.447-43.6 14.532a8 8 0 0 0 -.441 15.017l27.922 11.173a131.4 131.4 0 0 0 -23.481 22.859c-42.853 14.441-65.466 33.253-65.466 54.541 0 21.207 21.975 38.427 56.418 51.384zm59.348-359.965v-8h24v8zm-16 56v-8h40v8zm-24.751 144.683 27.281-9.094a8 8 0 0 0 5.315-6.021l3.81-19.049 16.3 28.533a131.345 131.345 0 0 0 -34.521 12.906zm97.368 191.317a146.88 146.88 0 0 1 -94.717-34.273c47.34 12.036 107.583 18.273 166.1 18.273 60.419 0 117.653-6.188 163.185-17.532a147.947 147.947 0 0 1 -93.8 33.532zm311.383-96c0 14.913-25 31.073-66.868 43.229-46.132 13.395-107.622 20.771-173.132 20.771s-127-7.376-173.132-20.771c-41.868-12.156-66.868-28.316-66.868-43.229 0-10.429 12.656-21.719 34.82-31.7q-1.086 2.164-2.1 4.377l14.556 6.643c1.316-2.884 2.756-5.688 4.289-8.424a34.545 34.545 0 0 0 12.865 2.573 33.067 33.067 0 0 0 16.537-4.525 43.586 43.586 0 0 0 13.687-12.508l-13.312-8.875a28.373 28.373 0 0 1 -8.313 7.492 16.714 16.714 0 0 1 -12.338 2.009 114.95 114.95 0 0 1 148.533-29.782c-.826.232-1.641.477-2.458.719h-62.766c-19.423 0-32.144 15.891-42.366 28.66q-1.2 1.5-2.395 2.981c-10.449 12.915-17.01 16.36-19.239 16.36h-24v16h24c9.176 0 19.538-7.292 31.677-22.294q1.219-1.506 2.448-3.046c8.917-11.141 18.139-22.66 29.875-22.66h26.325a102.411 102.411 0 0 0 -20.3 16.244 91.589 91.589 0 0 0 -58.593 39.756h-43.432c-8.129 0-11.254-1.8-11.771-2.754-.846-1.559.623-6.034 2.451-8.844l-6.68-4.402-6.656-4.437c-.95 1.424-9.108 14.234-3.225 25.227 3.981 7.438 12.689 11.21 25.881 11.21h85.651a34.561 34.561 0 0 0 8.6 14.054c16.648 16.57 49.672 18 91.812 17.947 3.179.049 70.907-.034 71.066-.036 36.779-.3 65.475-2.839 80.618-17.911 7.024-6.992 10.586-16.229 10.586-27.453a54.238 54.238 0 0 0 -.95-10.075c11.9-.2 29.046-2.716 37.366-14.476a25.217 25.217 0 0 0 4.557-13.08c27.023 10.745 42.694 23.422 42.694 35.03zm-253.818-93.747 6.662 13.325 14.311-7.155-7.055-14.123 9.755-5.574a49.146 49.146 0 0 0 19.282 27.347c-1.707-.04-3.415-.076-5.132-.076a212.313 212.313 0 0 0 -32.96 2.553 131.513 131.513 0 0 0 -15.621-10.15zm82.165 9.268a24.09 24.09 0 0 0 10.138-12.264c20.095 1.35 80.387 8.378 98.36 44.321 3.373 6.745 6.6 15.9 2.852 21.221-2.741 3.885-9.449 6.507-18.887 7.383a82.8 82.8 0 0 1 -11.094.229c-6.6-12.6-18.018-24.022-33.681-33.42a137.831 137.831 0 0 0 -14.872-7.7c23.282-6.585 36.563 5.772 37.234 6.418l5.603-5.709 5.657-5.657c-1.132-1.134-27.648-26.848-70.648-3a190.433 190.433 0 0 0 -22.309-4.833zm-99.847 114.072c3.385-8.693 23.848-21.593 55.5-21.593 16.835 0 32.953 3.877 44.221 10.639 6.657 3.995 10.025 8 11.239 10.965-6.152 1.708-16.231 2.229-24.912 2.388-3.667-.009-60.462 0-61.229 0-8.671-.164-18.707-.692-24.819-2.399zm143.494-4.464a24.132 24.132 0 0 1 -3.165 1.547 56.846 56.846 0 0 1 -12.928 3.317c-.871-9.187-7.695-18.024-19.446-25.074-13.685-8.21-32.804-12.919-52.455-12.919-36.846 0-68.279 16.329-71.68 36.4a39.566 39.566 0 0 1 -5.149-1.722 24 24 0 0 1 -3.163-1.546c-.008-.389-.008-.85-.008-1.233 0-31.481 45.155-55.9 84-55.9 24.384 0 47.843 7.9 64.362 21.666 12.48 10.402 19.638 22.88 19.638 34.235 0 .381 0 .841-.008 1.229zm15.988-1.788c-.21-15.949-9.421-32.671-25.375-45.966-19.348-16.126-46.541-25.375-74.607-25.375-26.2 0-51.244 7.89-70.519 22.218-18.735 13.927-29.481 32.035-29.481 49.682 0 .944.031 1.841.1 2.7-6.16-1.9-11.11-4.455-14.559-7.889-4.007-3.988-5.874-9.108-5.874-16.113 0-17.005 11.554-33.3 32.533-45.891 13.227-7.936 29.116-13.734 46.492-17.148l.115.1.122-.142a194.108 194.108 0 0 1 37.071-3.517c31.782 0 61.543 7.355 83.8 20.71 13.535 8.121 23.139 17.787 28.256 28.191a7.98 7.98 0 0 0 1.818 4.234 38.8 38.8 0 0 1 2.458 13.466c0 7-1.866 12.125-5.874 16.113a26.84 26.84 0 0 1 -6.478 4.627zm-236.247-23.341h-20.243a76.242 76.242 0 0 1 24.326-18.3 55.274 55.274 0 0 0 -4.083 18.3zm312.418-162.418 3.956 23.733a8 8 0 0 0 4.313 5.84l7.552 3.776-16.329 1.734-8.363-11.027-1.9-2.51zm-47.671 54.218 13.861 13.861 11.313-11.313-12.5-12.5 13.39-10.521 9.379 12.368a41.7 41.7 0 0 1 -20.139 33.307 111.4 111.4 0 0 0 -27.387-15.7zm-92.482 3.141a8.04 8.04 0 0 1 -3.884 6.86l-14.847 8.908a33.424 33.424 0 0 1 -20.869-26.292l39.6-22.631zm-48-24.155v-118.786h-16v127.929l-42.464 24.265a131.3 131.3 0 0 0 -13.536-4.206v-187.988h-16v184.994a130.423 130.423 0 0 0 -16-.994v-200a8.009 8.009 0 0 1 8-8h40v136h16v-136h24v40h16v-40h8a8.009 8.009 0 0 1 8 8v165.643z"/></svg>