<svg id="Layer_5" enable-background="new 0 0 64 64" height="512" viewBox="0 0 64 64" width="512" xmlns="http://www.w3.org/2000/svg"><g><g><path d="m49 43c-.83 0-1.58.34-2.12.88-.31.31-.56.69-.7 1.12h-.01-40.17c-2.21 0-4-1.79-4-4h50.54c-.28.48-.66.89-1.11 1.21-.69.5-1.53.79-2.43.79z" fill="#b27946"/><path d="m54.67 41h7.33c0 2.21-1.79 4-4 4h-.03c-.1-1.33-.84-2.52-1.99-3.21z" fill="#b27946"/><path d="m58 11h-52c-2.21 0-4 1.79-4 4v26h50.54 2.13 7.33v-26c0-2.21-1.79-4-4-4z" fill="#d3a06c"/><path d="m15.96 5c.02.33.04.66.04 1 0 6.73-4.39 12-10 12v-7c0-3.31 2.69-6 6-6z" fill="#ff826e"/><path d="m18 16v5.02c-3.16 3.11-7.34 4.98-12 4.98v-4c5.16 0 9.58-3.04 12-7.67z" fill="#ff826e"/><path d="m18 28v2.83c-3.38 1.89-7.17 3.02-11.2 3.15-.51-.87-.8-1.89-.8-2.98v-1c4.46 0 8.57-1.38 12-3.77z" fill="#ff826e"/><path d="m18 31c0 1.77.77 3.37 2 4.46-1.06.96-2.46 1.54-4 1.54h-4c-2.23 0-4.17-1.22-5.2-3.02 4.03-.13 7.82-1.26 11.2-3.15z" fill="#fc6e51"/><path d="m18 24v2.23c-3.43 2.39-7.54 3.77-12 3.77v-4c4.66 0 8.84-1.87 12-4.98z" fill="#fc6e51"/><path d="m20 6.54c-1.23 1.09-2 2.69-2 4.46v1 2.33c-2.42 4.63-6.84 7.67-12 7.67v-4c5.61 0 10-5.27 10-12 0-.34-.02-.67-.04-1h.04c1.54 0 2.94.58 4 1.54z" fill="#fc6e51"/><path d="m30 18v2.99c-3.15-3.12-7.34-4.99-12-4.99v-1.67-2.33c4.46 0 8.57 1.38 12 3.77z" fill="#ff826e"/><path d="m18 26.23v-2.23c5.61 0 10 5.27 10 12 0 .34-.02.67-.04 1h-3.96c-.02 0-.03 0-.05 0 .03-.33.05-.66.05-1 0-4.42-2.69-8-6-8z" fill="#ff826e"/><path d="m18 28c3.31 0 6 3.58 6 8 0 .34-.02.67-.05 1-1.52-.01-2.91-.59-3.95-1.54-1.23-1.09-2-2.69-2-4.46v-.17z" fill="#fc6e51"/><path d="m30.8 33.98c.31.56.72 1.06 1.2 1.48-1.06.96-2.46 1.54-4 1.54h-.04c.02-.33.04-.66.04-1 0-6.73-4.39-12-10-12v-2.98-5.02c4.66 0 8.85 1.87 12 4.99v1.01 8 1c0 1.08.29 2.1.8 2.98z" fill="#fc6e51"/><path d="m32 6.54c-1.23 1.09-2 2.69-2 4.46v4.77c-3.43-2.39-7.54-3.77-12-3.77v-1c0-1.77.77-3.37 2-4.46 1.06-.96 2.46-1.54 4-1.54h4c1.54 0 2.94.58 4 1.54z" fill="#fc6e51"/><path d="m30 18v-2.23-4.77c0-1.77.77-3.37 2-4.46 1.06-.96 2.46-1.54 4-1.54h3.96c.02.33.04.66.04 1 0 6.73-4.39 12-10 12z" fill="#ff826e"/><path d="m42 24v2.22c-3.43 2.4-7.54 3.78-12 3.78v-8c5.16 0 9.59-3.05 12-7.69v1.69 4z" fill="#ff826e"/><path d="m32 35.46c-.48-.42-.89-.92-1.2-1.48 4.03-.13 7.83-1.26 11.2-3.15v.17c0 1.77.77 3.37 2 4.46-1.06.96-2.46 1.54-4 1.54h-4c-1.54 0-2.94-.58-4-1.54z" fill="#ff826e"/><g fill="#fc6e51"><path d="m42 28v2.83c-3.37 1.89-7.17 3.02-11.2 3.15-.51-.88-.8-1.9-.8-2.98v-1c4.46 0 8.57-1.38 12-3.78z"/><path d="m42.8 8.02c-.51.88-.8 1.9-.8 2.98v1 2.31c-2.41 4.64-6.84 7.69-12 7.69v-1.01-2.99c5.61 0 10-5.27 10-12 0-.34-.02-.67-.04-1h.04c1.54 0 2.94.58 4 1.54-.48.42-.89.92-1.2 1.48z"/><path d="m52 36c0 .34-.02.67-.04 1h-3.96c-.02 0-.03 0-.05 0 .03-.33.05-.66.05-1 0-4.42-2.69-8-6-8v-1.78-2.22c5.61 0 10 5.27 10 12z"/><path d="m55.98 35.48c-.24-8.72-6.28-15.48-13.98-15.48v-4c7.06 0 13.04 4.3 16 10.72v4.28c0 1.78-.78 3.39-2.02 4.48z"/><path d="m42.8 8.02c5.72.19 10.98 2.37 15.2 5.93v5.43c-3.98-4.57-9.63-7.38-16-7.38v-1c0-1.08.29-2.1.8-2.98z"/></g><path d="m58 13.95c-4.22-3.56-9.48-5.74-15.2-5.93.31-.56.72-1.06 1.2-1.48 1.06-.96 2.46-1.54 4-1.54h4c3.31 0 6 2.69 6 6z" fill="#ff826e"/><path d="m42 12c6.37 0 12.02 2.81 16 7.38v7.34c-2.96-6.42-8.94-10.72-16-10.72v-1.69z" fill="#ff826e"/><path d="m42 20c7.7 0 13.74 6.76 13.98 15.48-1.05.95-2.45 1.52-3.98 1.52h-.04c.02-.33.04-.66.04-1 0-6.73-4.39-12-10-12z" fill="#ff826e"/><path d="m48 36c0 .34-.02.67-.05 1-1.52-.01-2.91-.59-3.95-1.54-1.23-1.09-2-2.69-2-4.46v-.17-2.83c3.31 0 6 3.58 6 8z" fill="#ff826e"/><path d="m58 53h4c0 1.66-.67 3.16-1.76 4.24-1.08 1.09-2.58 1.76-4.24 1.76h-8c-3.31 0-6-2.69-6-6h4z" fill="#969faa"/><path d="m58 49c1.1 0 2 .9 2 2 0 .55-.22 1.05-.59 1.41-.36.37-.86.59-1.41.59h-12c-1.1 0-2-.9-2-2 0-.55.22-1.05.59-1.41.36-.37.86-.59 1.41-.59h3 6z" fill="#b4dd7f"/><path d="m58 45.36v.64c0 1.66-1.34 3-3 3h-6c-1.66 0-3-1.34-3-3 0-.35.06-.69.18-1 .14-.43.39-.81.7-1.12.54-.54 1.29-.88 2.12-.88.9 0 1.74-.29 2.43-.79.45-.32.83-.73 1.11-1.21.17-.26.31-.55.41-.85l.05-.15 1.67 1 1.31.79c1.15.69 1.89 1.88 1.99 3.21.02.12.03.24.03.36z" fill="#b4dd7f"/></g><path d="m59 45.899c2.279-.465 4-2.484 4-4.899v-26c0-2.437-1.755-4.466-4.065-4.906-.447-3.432-3.383-6.094-6.935-6.094h-4c-1.489 0-2.869.471-4.005 1.267-1.17-.818-2.558-1.267-3.995-1.267h-4c-1.489 0-2.869.471-4.005 1.267-1.17-.818-2.558-1.267-3.995-1.267h-4c-1.489 0-2.869.471-4.005 1.267-1.17-.818-2.558-1.267-3.995-1.267h-4c-3.552 0-6.488 2.662-6.935 6.094-2.31.44-4.065 2.469-4.065 4.906v26c0 2.757 2.243 5 5 5h39c0 .749.22 1.443.579 2.043-1.454.206-2.579 1.447-2.579 2.957 0 .352.072.686.184 1h-2.184v1c0 3.859 3.141 7 7 7h8c3.859 0 7-3.141 7-7v-1h-2.184c.112-.314.184-.648.184-1 0-1.51-1.125-2.751-2.579-2.957.359-.6.579-1.294.579-2.043zm-.225-2.013c-.209-.694-.562-1.335-1.033-1.886h3.073c-.328.921-1.087 1.629-2.04 1.886zm-1.775 2.114c0 1.103-.897 2-2 2h-6c-1.103 0-2-.897-2-2s.897-2 2-2c1.864 0 3.548-.995 4.459-2.559l2.006 1.203c.946.57 1.535 1.609 1.535 2.712zm-40.005-39.892c.529.109 1.036.304 1.504.577-.935 1.191-1.499 2.687-1.499 4.315v3.072c-2.182 4.02-5.854 6.533-10 6.882v-2.012c5.651-.577 9.95-5.995 9.995-12.834zm24 0c.529.109 1.036.304 1.504.577-.935 1.191-1.499 2.687-1.499 4.315v3.067c-2.182 4.03-5.834 6.54-10 6.888v-2.013c5.651-.577 9.95-5.995 9.995-12.834zm-9.603 26.832c-.252-.597-.392-1.252-.392-1.94v-.038c3.539-.159 6.949-1.151 10-2.924v2.185c-3.014 1.605-6.24 2.517-9.608 2.717zm9.608-7.263c-2.994 1.984-6.421 3.108-10 3.285v-5.998c3.917-.276 7.443-2.18 10-5.312zm2-11.113c.026-.051.055-.099.08-.151l-.08-.039v-1.347c5.369.262 10.295 2.632 14 6.743v3.238c-3.333-4.73-8.402-7.657-14-7.97zm14 2.352c-3.883-3.603-8.751-5.657-14-5.889v-.027c0-.685.14-1.338.39-1.932 4.955.295 9.638 2.14 13.61 5.375zm-28 1.894c-2.907-2.254-6.363-3.556-10-3.76v-2.012c3.579.177 7.005 1.301 10 3.285zm-22 4.154c3.899-.278 7.437-2.185 10-5.315v2.917c-2.784 2.62-6.286 4.149-10 4.384zm0 3.987c3.636-.204 7.094-1.505 10-3.758v2.484c-2.995 1.983-6.421 3.108-10 3.285zm10 1.087v2.184c-3.015 1.606-6.241 2.518-9.608 2.718-.252-.597-.392-1.252-.392-1.94v-.038c3.539-.159 6.949-1.152 10-2.924zm.142 4.368c.222 1.082.698 2.07 1.357 2.909-.757.441-1.615.685-2.499.685h-4c-1.214 0-2.313-.452-3.18-1.174 2.891-.321 5.679-1.126 8.322-2.42zm1.858-1.406v-1.859c2.256.644 3.962 3.423 3.996 6.757-2.277-.466-3.996-2.485-3.996-4.898zm0-3.897v-2.035c4.559.591 8 5.178 8 10.932h-2c0-4.525-2.614-8.27-6-8.897zm9.995 8.788c-.045-6.838-4.344-12.256-9.995-12.833v-6.008c3.714.235 7.214 1.766 10 4.386v9.564c0 1.628.564 3.124 1.5 4.315-.469.273-.975.468-1.505.576zm12.147-3.485c.222 1.082.698 2.071 1.357 2.909-.757.441-1.615.685-2.499.685h-4c-1.214 0-2.313-.452-3.18-1.174 2.891-.321 5.68-1.126 8.322-2.42zm1.858-1.406v-1.859c2.256.644 3.962 3.423 3.996 6.757-2.277-.466-3.996-2.485-3.996-4.898zm0-3.897v-2.035c4.559.591 8 5.178 8 10.932h-2c0-4.525-2.614-8.27-6-8.897zm9.996 8.796c-.043-6.842-4.343-12.264-9.996-12.841v-2.003c6.547.54 11.54 6.328 11.944 13.966-.572.42-1.228.732-1.948.878zm3.693-3.22c-1.284-7.495-6.833-13.119-13.689-13.624v-2.018c5.953.377 11.238 4.1 14 9.922v4.041c0 .592-.121 1.152-.311 1.679zm-4.689-26.679c2.757 0 5 2.243 5 5v.911c-3.653-2.638-7.801-4.252-12.177-4.739.866-.721 1.965-1.172 3.177-1.172zm-13 0c0 5.754-3.441 10.341-8 10.932v-5.932c0-2.757 2.243-5 5-5zm-11 0c.885 0 1.742.244 2.5.685-.936 1.191-1.5 2.687-1.5 4.315v2.962c-3.051-1.772-6.461-2.765-10-2.924v-.038c0-2.757 2.243-5 5-5zm-16 0h3c0 5.754-3.441 10.341-8 10.932v-5.932c0-2.757 2.243-5 5-5zm-7 6.184v18.816c0 3.859 3.141 7 7 7h4c1.437 0 2.825-.449 3.995-1.267 1.136.796 2.516 1.267 4.005 1.267h4c1.437 0 2.825-.449 3.995-1.267 1.136.796 2.516 1.267 4.005 1.267h4c1.437 0 2.825-.449 3.995-1.267 1.136.796 2.516 1.267 4.005 1.267h4c3.859 0 7-3.141 7-7v-18.816c1.161.414 2 1.514 2 2.816v25h-6.056l-2.497-1.497-.447 1.335c-.019.056-.047.107-.069.162h-48.931v-25c0-1.302.839-2.402 2-2.816zm1 31.816c-1.302 0-2.402-.839-2.816-2h45.816c-1.474 0-2.75.81-3.444 2zm50 14h-8c-2.415 0-4.435-1.721-4.899-4h2.899 12 2.899c-.464 2.279-2.484 4-4.899 4zm3-7c0 .552-.448 1-1 1h-12c-.552 0-1-.448-1-1s.448-1 1-1h3 6 3c.552 0 1 .448 1 1z"/></g></svg>