<svg id="Layer_5" enable-background="new 0 0 64 64" height="512" viewBox="0 0 64 64" width="512" xmlns="http://www.w3.org/2000/svg"><g><g><path d="m19.66 9.13c1.48 1.18 2.34 2.97 2.34 4.87 0 1.66-1.34 3-3 3h-10c-1.66 0-3-1.34-3-3 0-.83.34-1.58.88-2.12s1.29-.88 2.12-.88c1.58 0 3.1-.37 4.47-1.06 1.37-.68 2.59-1.68 3.53-2.94z" fill="#b4dd7f"/><path d="m24 19c0 .55-.22 1.05-.59 1.41-.36.37-.86.59-1.41.59h-16c-1.1 0-2-.9-2-2 0-.55.22-1.05.59-1.41.36-.37.86-.59 1.41-.59h3 10 3c1.1 0 2 .9 2 2z" fill="#b4dd7f"/><path d="m62 55h-60v-22c0-2.209 1.791-4 4-4h52c2.209 0 4 1.791 4 4z" fill="#ccd1d9"/><path d="m22 21h3.77c-.3.34-.53.76-.65 1.22-.35-.14-.72-.22-1.12-.22-1.39 0-2.54.94-2.88 2.22-.35-.14-.72-.22-1.12-.22-1.39 0-2.54.94-2.88 2.22-.35-.14-.72-.22-1.12-.22-1.66 0-3 1.34-3 3h-3c-4.42 0-8-3.58-8-8h4z" fill="#b27946"/><path d="m53 55h9c0 2.21-1.79 4-4 4h-52c-2.21 0-4-1.79-4-4z" fill="#aab2bd"/><path d="m58 18-.22 1.52c-.45 3.16-2.72 5.7-5.76 6.56 0-.03 0-.05 0-.08 0-1.66-1.35-3-3-3-.36 0-.7.06-1.02.18v-.96c0-1.45.39-2.88 1.14-4.12l1.86-3.1 2 5z" fill="#ff826e"/><path d="m47.98 8-.22 1.52c-.45 3.16-2.72 5.7-5.76 6.56 0-.03 0-.05 0-.08 0-1.66-1.34-3-3-3-.36 0-.7.06-1.02.18v-.96c0-1.45.4-2.88 1.14-4.12l1.86-3.1 2 5z" fill="#ff826e"/><path d="m25.78 21c.54-.61 1.33-1 2.22-1 .36 0 .7.07 1.02.19 0-.06-.02-.13-.02-.19 0-1.66 1.34-3 3-3 0-1.66 1.34-3 3-3 .54 0 1.03.15 1.47.4.35-.56.88-.99 1.51-1.22.32-.12.66-.18 1.02-.18 1.66 0 3 1.34 3 3v.08c-.02.74-.32 1.41-.78 1.92.48.53.78 1.23.78 2 0 1.31-.85 2.41-2.02 2.82 0 .06.02.12.02.18 0 .95-.35 1.81-.9 2.5.51.64.85 1.43.89 2.3-.6.54-.97 1.33-.97 2.2 0 .06.01.13.02.19-.32-.12-.66-.19-1.02-.19-1.39 0-2.54.94-2.89 2.22-.34-.14-.72-.22-1.11-.22-1.39 0-2.54.94-2.89 2.22-.34-.14-.72-.22-1.11-.22-1.39 0-2.54.94-2.89 2.22-.34-.14-.72-.22-1.11-.22-1.59 0-2.88 1.22-2.99 2.78-.35 1.27-1.64 2.22-3.03 2.22-1.07 0-2-.56-2.53-1.4-.44.25-.93.4-1.47.4-1.66 0-3-1.34-3-3 0-.54.15-1.03.4-1.47-.84-.53-1.4-1.46-1.4-2.53s.56-2 1.4-2.53c-.25-.44-.4-.93-.4-1.47 0-1.66 1.34-3 3-3 .4 0 .77.08 1.12.22.34-1.28 1.49-2.22 2.88-2.22.4 0 .77.08 1.12.22.34-1.28 1.49-2.22 2.88-2.22.4 0 .77.08 1.12.22.12-.46.35-.88.65-1.22z" fill="#fcd770"/><path d="m48 23.18c.32-.12.66-.18 1.02-.18 1.65 0 3 1.34 3 3v.08c-.03.9-.46 1.67-1.1 2.2.2.22.38.46.53.72.35.59.55 1.27.55 2 0 1.86-1.28 3.41-3 3.86.01.05.02.09.02.14 0 1.31-.85 2.41-2.02 2.82l-.93.33c-.34-.1-.7-.15-1.07-.15-1.87 0-3.42 1.28-3.86 3.01-.05 0-.09-.01-.14-.01-1.66 0-3 1.34-3 3 0 1.13.62 2.09 1.53 2.59l-.01.01c-.44.25-.95.4-1.5.4-.4 0-.77-.08-1.12-.22-.34 1.28-1.5 2.22-2.88 2.22-.4 0-.77-.08-1.12-.22-.34 1.28-1.5 2.22-2.88 2.22-1.07 0-2-.56-2.53-1.4-.44.25-.93.4-1.47.4-1.66 0-3-1.34-3-3 0-.54.15-1.03.4-1.47-.84-.53-1.4-1.46-1.4-2.53s.56-2 1.4-2.53c-.25-.44-.4-.93-.4-1.47 0-.07 0-.15.01-.22.11-1.56 1.4-2.78 2.99-2.78.39 0 .77.08 1.11.22.35-1.28 1.5-2.22 2.89-2.22.39 0 .77.08 1.11.22.35-1.28 1.5-2.22 2.89-2.22.39 0 .77.08 1.11.22.35-1.28 1.5-2.22 2.89-2.22.36 0 .7.07 1.02.19-.01-.06-.02-.13-.02-.19 0-.87.37-1.66.97-2.2.53-.5 1.24-.8 2.03-.8 0-1.66 1.34-3 3-3 .54 0 1.03.15 1.47.4.35-.56.88-.99 1.51-1.22z" fill="#fcd770"/><path d="m46.07 38.15c1.37.37 2.44 1.47 2.79 2.86l.2.5c-.94.52-1.65 1.42-1.92 2.5-.05 0-.09-.01-.14-.01-1.66 0-3 1.34-3 3 0 1.39.94 2.54 2.22 2.88-.14.35-.22.72-.22 1.12h-3c-1.66 0-3-1.34-3-3 0-.4.08-.77.22-1.12-.24-.06-.47-.16-.69-.29-.91-.5-1.53-1.46-1.53-2.59 0-1.66 1.34-3 3-3 .05 0 .09.01.14.01.44-1.73 1.99-3.01 3.86-3.01.37 0 .73.05 1.07.15z" fill="#ffeaa7"/><path d="m46 51c0-.4.08-.77.22-1.12-1.28-.34-2.22-1.49-2.22-2.88 0-1.66 1.34-3 3-3 .05 0 .09.01.14.01.27-1.08.98-1.98 1.92-2.5.57-.33 1.23-.51 1.94-.51 1.87 0 3.42 1.28 3.86 3.01.05 0 .09-.01.14-.01 1.66 0 3 1.34 3 3 0 1.39-.94 2.54-2.22 2.88.14.35.22.72.22 1.12 0 1.66-1.34 3-3 3-.77 0-1.47-.3-2-.78-.53.48-1.23.78-2 .78-1.66 0-3-1.34-3-3z" fill="#fcd770"/></g><g><path d="m58 28h-5.552c.223-.371.383-.772.473-1.193 3.108-1.128 5.38-3.852 5.851-7.143l.462-3.234-5.677 2.27-2.377-5.943-2.897 4.829c-.839 1.398-1.283 3-1.283 4.63v.351c-.292.173-.571.37-.813.615-.38-.121-.77-.182-1.169-.182-1.897 0-3.489 1.327-3.898 3.102-.156.036-.307.085-.455.139-.098-.254-.21-.503-.35-.741.371-.629.596-1.318.664-2.037 1.232-.702 2.021-2.017 2.021-3.463 0-.706-.19-1.395-.546-2.002.218-.371.366-.775.454-1.192 3.106-1.129 5.377-3.852 5.847-7.142l.462-3.234-5.678 2.27-2.377-5.943-2.897 4.829c-.839 1.398-1.283 3-1.283 4.63v.351c-.292.173-.571.37-.813.615-.38-.121-.771-.182-1.169-.182-1.897 0-3.489 1.327-3.898 3.102-1.452.335-2.605 1.462-2.976 2.901-1.023-.035-1.996.347-2.741.998h-.569c.112-.315.184-.649.184-1.001 0-1.51-1.125-2.751-2.58-2.958.36-.6.58-1.293.58-2.042 0-2.212-.991-4.273-2.718-5.655l-3.462-2.771-.62.826c-1.691 2.254-4.382 3.6-7.2 3.6-2.206 0-4 1.794-4 4 0 .749.22 1.442.58 2.042-1.455.207-2.58 1.448-2.58 2.958 0 .352.072.686.184 1h-2.184v1c0 2.953 1.436 5.57 3.639 7.212-2.093.597-3.639 2.506-3.639 4.788v22c0 2.757 2.243 5 5 5h52c2.757 0 5-2.243 5-5v-22c0-2.757-2.243-5-5-5zm3 5v21h-5.382c.84-.734 1.382-1.8 1.382-3 0-.177-.012-.353-.036-.528 1.234-.697 2.036-2.014 2.036-3.472 0-2.006-1.484-3.672-3.412-3.957-.774-1.824-2.566-3.043-4.588-3.043-.472 0-.93.072-1.367.197-.292-.754-.752-1.407-1.335-1.926.902-.626 1.516-1.599 1.677-2.693 1.813-.778 3.025-2.567 3.025-4.578 0-.339-.047-.672-.115-1h5.115c1.654 0 3 1.346 3 3zm-20.519 12.919c-.872-.236-1.481-1.025-1.481-1.919 0-1.103.897-2 1.935-2.003l.971.05.2-.786c.34-1.331 1.53-2.261 2.894-2.261 1.321 0 2.47.875 2.852 2.138-.615.505-1.118 1.148-1.439 1.905-1.929.285-3.413 1.951-3.413 3.957 0 1.178.53 2.259 1.383 3h-1.383c-1.103 0-2-.897-2-2 0-.249.05-.499.148-.744l.418-1.043zm4.519 1.081c0-1.103.897-2 1.935-2.003l.971.05.2-.786c.34-1.331 1.53-2.261 2.894-2.261s2.554.93 2.894 2.261l.2.786.811-.034c.054-.002.107-.009.095-.013 1.103 0 2 .897 2 2 0 .894-.609 1.683-1.481 1.919l-1.085.294.418 1.043c.098.245.148.495.148.744 0 1.103-.897 2-2 2-.621 0-1.066-.284-1.331-.521l-.669-.603-.669.602c-.265.238-.71.522-1.331.522-1.103 0-2-.897-2-2 0-.249.05-.499.148-.744l.418-1.043-1.085-.294c-.872-.236-1.481-1.025-1.481-1.919zm4.998-28.385.823-1.372 1.623 4.057 4.32-1.728c-.39 2.278-1.895 4.191-3.974 5.148-.538-1.576-2.017-2.72-3.772-2.72-.001 0-.002 0-.003 0 .037-1.193.367-2.36.983-3.385zm-7.98 9.385h1v-1c0-1.103.897-2 2-2 .333 0 .661.091.977.27l.828.469.51-.804c.371-.585 1.001-.935 1.685-.935 1.103 0 2 .897 2 2 0 .581-.262 1.118-.737 1.513l-.813.676.721.774c.522.563.811 1.287.811 2.037 0 1.357-.924 2.545-2.248 2.89l-.788.205.041.813c.002.053.007.1.013.092 0 .842-.542 1.597-1.352 1.879l-.663.235c-.326-.068-.659-.114-1.003-.114-2.022 0-3.814 1.219-4.588 3.043-1.928.285-3.412 1.951-3.412 3.957 0 .687.183 1.34.501 1.914-.076-.021-.152-.032-.227-.062l-1.043-.418-.294 1.085c-.302 1.115-1.537 1.784-2.663 1.333l-1.043-.418-.294 1.085c-.236.872-1.025 1.481-1.919 1.481-.684 0-1.314-.35-1.685-.935l-.51-.804-.828.469c-.316.179-.644.27-.977.27-1.103 0-2-.897-2-2 0-.333.091-.661.27-.977l.469-.828-.804-.51c-.585-.371-.935-1.001-.935-1.685s.35-1.314.935-1.685l.804-.51-.469-.828c-.179-.316-.27-.645-.27-.977 0-1.352 1.417-2.383 2.743-1.853l1.044.419.294-1.086c.301-1.114 1.54-1.783 2.662-1.333l1.044.419.294-1.086c.301-1.114 1.541-1.783 2.662-1.333l1.044.419.294-1.086c.235-.871 1.025-1.48 1.919-1.48.216 0 .438.042.678.129l1.432.519-.093-1.52-.017-.128c0-1.103.897-2 2-2zm-2.039-19.385.823-1.372 1.623 4.057 4.32-1.728c-.39 2.278-1.895 4.191-3.974 5.148-.538-1.576-2.016-2.72-3.771-2.72-.001 0-.002 0-.003 0 .036-1.193.367-2.36.982-3.385zm-11.979 12.385c.216 0 .438.042.678.129l1.432.519-.093-1.52-.017-.128c0-1.103.897-2 2-2h1v-1c0-1.103.897-2 2-2 .333 0 .661.091.977.27l.828.469.51-.804c.371-.585 1.001-.935 1.685-.935 1.103 0 2 .897 2 2 0 .62-.284 1.063-.522 1.326l-.607.67.606.671c.337.374.523.847.523 1.333 0 .842-.542 1.597-1.347 1.877l-.706.246.036.747c.003.059.01.116.017.13 0 .675-.234 1.322-.678 1.872l-.508.628.508.628c.322.399.53.85.622 1.325-.371.447-.651.971-.8 1.549-1.494-.044-2.881.764-3.598 2.034-1.618-.221-3.219.616-4 2-1.619-.221-3.219.616-4 2-.175-.024-.351-.036-.528-.036-2.04 0-3.71 1.542-3.951 3.518l-.006-.002c-.226.832-1.13 1.484-2.061 1.484-.684 0-1.314-.35-1.685-.935l-.51-.804-.828.469c-.316.179-.644.27-.977.27-1.103 0-2-.897-2-2 0-.333.091-.661.27-.977l.469-.828-.804-.51c-.585-.371-.935-1.001-.935-1.685s.35-1.314.935-1.685l.804-.51-.469-.828c-.179-.316-.27-.644-.27-.977 0-1.352 1.413-2.386 2.744-1.852l1.043.418.294-1.085c.302-1.115 1.537-1.783 2.663-1.333l1.043.418.294-1.085c.301-1.114 1.538-1.783 2.663-1.333l1.043.418.294-1.085c.236-.872 1.025-1.481 1.919-1.481zm-19-9c3.099 0 6.072-1.332 8.143-3.605l1.89 1.512c1.25 1 1.967 2.492 1.967 4.093 0 1.103-.897 2-2 2h-10c-1.103 0-2-.897-2-2s.897-2 2-2zm-4 7c0-.551.449-1 1-1h3 10 3c.551 0 1 .449 1 1s-.449 1-1 1h-16c-.551 0-1-.449-1-1zm-1.929 3h2.929 15.388c-.339.295-.636.639-.86 1.036-1.621-.22-3.219.616-4 2-.175-.024-.351-.036-.528-.036-1.858 0-3.411 1.28-3.858 3h-2.142c-3.521 0-6.442-2.612-6.929-6zm2.929 8h4 2.141c.015.056.022.113.04.169-.751.742-1.181 1.752-1.181 2.831s.43 2.089 1.181 2.831c-.12.38-.181.771-.181 1.169 0 2.206 1.794 4 4 4 .398 0 .789-.061 1.169-.181.742.751 1.752 1.181 2.831 1.181.42 0 .829-.072 1.219-.192-.12.382-.201.778-.201 1.192 0 1.079.43 2.089 1.181 2.831-.121.38-.181.771-.181 1.169 0 2.206 1.794 4 4 4 .398 0 .789-.061 1.169-.181.742.751 1.752 1.181 2.831 1.181 1.458 0 2.775-.802 3.472-2.036 1.621.22 3.219-.616 4-2 .51.07 1.026.026 1.52-.101-.002.046-.01.091-.01.137 0 2.206 1.794 4 4 4h2.142c.205.79.643 1.479 1.24 2h-43.382v-21c0-1.654 1.346-3 3-3zm52 28h-52c-1.302 0-2.402-.839-2.816-2h57.631c-.413 1.161-1.513 2-2.815 2z"/><path d="m30 39c-2.206 0-4 1.794-4 4h2c0-1.103.897-2 2-2z"/><path d="m37 20v-2c-2.206 0-4 1.794-4 4h2c0-1.103.897-2 2-2z"/><path d="m29 47h2c0-1.103.897-2 2-2v-2c-2.206 0-4 1.794-4 4z"/><path d="m43 35h2c0-2.206-1.794-4-4-4v2c1.103 0 2 .897 2 2z"/><path d="m30 28h2c0-2.206-1.794-4-4-4v2c1.103 0 2 .897 2 2z"/><path d="m34 38v2c2.206 0 4-1.794 4-4h-2c0 1.103-.897 2-2 2z"/><path d="m17 34v2c2.206 0 4-1.794 4-4h-2c0 1.103-.897 2-2 2z"/><path d="m5 42h2v2h-2z"/><path d="m5 50h2v2h-2z"/><path d="m5 46h2v2h-2z"/></g></g></svg>