<svg id="outline" height="512" viewBox="0 0 512 512" width="512" xmlns="http://www.w3.org/2000/svg"><path d="m99 232c-34.739-2.886-61.847-7.21-91-12 0-8.972 4.979-16.8 7.072-25.316 2.1-8.557-2.238-19.61 1.787-27.566 3.931-7.77 15.44-10.932 21.023-17.992 5.373-6.794 5.669-18.694 12.41-24.709 6.456-5.761 18.352-4.8 25.92-9.741 7.252-4.733 11.076-16.025 19.223-19.908 7.829-3.732 19.035.353 27.58-2.51 8.236-2.761 14.673-12.8 23.474-14.682 8.5-1.816 18.5 4.688 27.439 3.762 8.657-.9 17.087-9.338 26.072-9.338s17.414 8.442 26.07 9.337c8.942.925 18.934-5.578 27.439-3.763 8.8 1.879 15.237 11.921 23.473 14.682 8.545 2.864 19.751-1.221 27.581 2.511 8.148 3.884 11.972 15.176 19.225 19.909 7.568 4.939 19.464 3.98 25.92 9.741 6.741 6.015 7.037 17.915 12.411 24.71 5.584 7.06 17.092 10.223 21.024 17.993 4.025 7.955-.317 19.008 1.786 27.565 1.451 5.9 4.286 11.472 5.891 17.321z" fill="#e5ca0a"/><path d="m273.7 90.746c-6.755-3.852-12.593-11.553-20.193-13.175-8.5-1.816-18.5 4.688-27.439 3.763-8.654-.896-17.083-9.334-26.068-9.334s-17.415 8.442-26.072 9.337c-8.942.925-18.935-5.578-27.439-3.762-8.8 1.879-15.238 11.922-23.474 14.682-8.544 2.864-19.75-1.221-27.58 2.51-8.147 3.883-11.971 15.175-19.223 19.908-7.568 4.939-19.464 3.98-25.92 9.741-6.741 6.015-7.037 17.915-12.41 24.709-5.583 7.06-17.092 10.222-21.023 17.992-4.025 7.955.317 19.008-1.787 27.566-2.093 8.517-7.072 16.341-7.072 25.317 29.153 4.793 56.261 9.117 91 12l16.923-1.16c27.809-100.973 112.943-131.14 157.777-140.094z" fill="#fcfcfc" opacity=".3"/><path d="m156 340c-34.739-2.886-70.847-7.217-100-12.01 0-8.972 4.979-16.8 7.072-25.316 2.1-8.557-2.238-19.61 1.787-27.566 3.931-7.77 15.44-10.932 21.023-17.992 5.373-6.794 5.669-18.694 12.41-24.709 6.456-5.761 18.352-4.8 25.92-9.741 7.252-4.733 11.076-16.025 19.223-19.908 7.829-3.732 19.035.353 27.58-2.51 8.236-2.761 14.673-12.8 23.474-14.682 8.5-1.816 18.5 4.688 27.439 3.762 8.657-.9 17.087-9.337 26.072-9.337s17.414 8.442 26.07 9.337c8.942.925 18.934-5.578 27.439-3.763 8.8 1.879 15.237 11.921 23.473 14.682 8.545 2.864 19.751-1.221 27.581 2.511 8.148 3.884 11.972 15.176 19.225 19.909 7.568 4.939 19.464 3.98 25.92 9.741 6.741 6.015 7.037 17.915 12.411 24.71 5.584 7.06 17.092 10.223 21.024 17.993 4.025 7.955-.317 19.008 1.786 27.565 1.451 5.9 4.286 11.472 5.891 17.321z" fill="#ead934"/><path d="m120 424c0-8.972 4.979-16.8 7.072-25.316 2.1-8.557-2.238-19.61 1.787-27.566 3.931-7.77 15.44-10.932 21.023-17.992 5.373-6.794 5.669-18.694 12.41-24.709 6.456-5.761 18.352-4.8 25.92-9.741 7.252-4.733 11.076-16.025 19.223-19.908 7.829-3.732 19.035.353 27.58-2.51 8.236-2.761 14.673-12.8 23.474-14.682 8.5-1.816 18.5 4.688 27.439 3.762 8.657-.9 17.087-9.337 26.072-9.337s17.414 8.442 26.07 9.337c8.942.925 18.934-5.578 27.439-3.763 8.8 1.879 15.237 11.921 23.473 14.682 8.545 2.864 19.751-1.221 27.581 2.511 8.148 3.884 11.972 15.176 19.225 19.909 7.568 4.939 19.464 3.98 25.92 9.741 6.741 6.015 7.037 17.915 12.411 24.71 5.584 7.06 17.092 10.223 21.024 17.993 4.025 7.955-.317 19.008 1.786 27.565 2.093 8.514 7.071 16.339 7.071 25.314 0 0-111.208 15.759-184 16a1208.206 1208.206 0 0 1 -200-16z" fill="#f9ee64"/><path d="m365.509 281.571c-8.5-1.816-18.5 4.688-27.439 3.763-8.656-.9-17.085-9.337-26.07-9.337s-17.415 8.442-26.072 9.337c-8.942.925-18.935-5.578-27.439-3.762-8.8 1.879-15.238 11.922-23.474 14.682-8.544 2.864-19.75-1.221-27.58 2.51-8.147 3.883-11.971 15.175-19.223 19.908-7.568 4.939-19.464 3.98-25.92 9.741-6.741 6.015-7.037 17.915-12.41 24.709-5.583 7.06-17.092 10.222-21.023 17.992-4.025 7.955.317 19.008-1.787 27.566-2.093 8.52-7.072 16.344-7.072 25.32 28.034 4.609 58.8 8.651 92.011 11.52 31.156-112.465 133.511-136.891 171.569-142.12-5.891-4.074-11.28-10.378-18.071-11.829z" fill="#fcfcfc" opacity=".3"/><path d="m322.884 199.359c-7.267-3.567-13.336-12.078-21.375-13.794-8.5-1.816-18.5 4.688-27.439 3.763-8.656-.9-17.085-9.337-26.07-9.337s-17.415 8.442-26.072 9.337c-8.942.925-18.935-5.578-27.439-3.762-8.8 1.879-15.238 11.922-23.474 14.682-8.544 2.864-19.75-1.221-27.58 2.51-8.147 3.883-11.971 15.175-19.223 19.908-7.568 4.939-19.464 3.98-25.92 9.741-6.741 6.015-7.037 17.915-12.41 24.709-5.583 7.06-17.092 10.222-21.023 17.992-4.025 7.955.317 19.008-1.787 27.566-2.093 8.518-7.072 16.344-7.072 25.316 27.91 4.589 62.191 8.75 95.546 11.629 31.862-111.141 133.741-135.15 171.338-140.26z" fill="#fcfcfc" opacity=".3"/><path d="m504.7 396.772c-.613-2.494-.362-5.96-.1-9.63.448-6.17.955-13.163-2.321-19.637-3.148-6.223-8.892-9.925-13.959-13.192-3.213-2.071-6.248-4.028-7.928-6.152-1.549-1.959-2.687-5.285-3.893-8.806-1.956-5.712-4.172-12.187-9.467-16.911-4.994-4.456-11.428-5.937-17.1-7.244-1.595-.367-3.146-.728-4.588-1.131-.593-1.726-1.225-3.4-1.851-5.043a72.161 72.161 0 0 1 -2.793-8.261c-.613-2.494-.362-5.96-.1-9.63.448-6.17.955-13.163-2.321-19.637-3.148-6.223-8.892-9.925-13.959-13.192-3.213-2.071-6.248-4.028-7.928-6.152-1.549-1.959-2.687-5.285-3.893-8.805-1.956-5.712-4.172-12.187-9.467-16.911-4.994-4.456-11.428-5.937-17.1-7.244-3.832-.882-7.451-1.715-9.769-3.228-2.1-1.374-4.228-4.263-6.475-7.322-3.491-4.752-7.448-10.138-13.68-13.109-5.934-2.829-12.421-2.557-18.14-2.317-3.967.167-7.716.323-10.341-.557-2.407-.807-5.2-3.125-8.158-5.579-4.476-3.714-9.548-7.923-16.187-9.341-6.379-1.362-12.589.347-18.068 1.855-3.843 1.058-7.474 2.058-10.218 1.773-2.54-.263-5.784-1.941-9.219-3.718-5.132-2.651-10.946-5.661-17.677-5.661s-12.546 3.008-17.676 5.662c-3.435 1.777-6.68 3.456-9.219 3.718-2.748.285-6.376-.715-10.219-1.773-5.478-1.509-11.687-3.218-18.068-1.855-6.639 1.417-11.712 5.627-16.188 9.341-2.958 2.454-5.751 4.772-8.158 5.579-2.625.88-6.373.722-10.34.557-5.721-.24-12.207-.511-18.139 2.317-6.232 2.971-10.189 8.357-13.68 13.109-2.247 3.059-4.369 5.948-6.473 7.321-2.318 1.513-5.937 2.346-9.769 3.228-4.04.93-8.461 1.954-12.476 4.07-26.844-2.392-53.849-5.707-80.481-9.9.636-2.15 1.478-4.355 2.343-6.622a85.343 85.343 0 0 0 3.383-10.149c1.216-4.948.844-10.079.516-14.606-.326-4.495-.633-8.74.64-11.257 1.189-2.35 4.83-4.7 8.352-6.967 3.975-2.562 8.481-5.467 11.809-9.675 3.25-4.109 4.966-9.124 6.48-13.549 1.447-4.227 2.813-8.22 4.98-10.153 1.931-1.723 6.054-2.672 10.042-3.59 4.792-1.1 10.224-2.353 14.925-5.421 4.536-2.96 7.77-7.363 10.624-11.248 2.605-3.547 5.067-6.9 7.669-8.138 2.349-1.12 6.349-.952 10.586-.775 5 .209 10.667.446 16.094-1.372 5.241-1.757 9.518-5.306 13.291-8.437 3.353-2.783 6.521-5.411 9.311-6.007 2.56-.545 6.407.512 10.48 1.634 4.862 1.338 10.373 2.856 16.112 2.262 5.554-.575 10.532-3.15 14.925-5.422 3.85-1.995 7.486-3.872 10.324-3.872s6.473 1.881 10.322 3.873c4.392 2.272 9.371 4.848 14.925 5.422 5.735.6 11.25-.923 16.112-2.262 4.074-1.121 7.922-2.181 10.48-1.634 2.791.6 5.958 3.224 9.311 6.006 3.773 3.131 8.05 6.681 13.291 8.437 5.427 1.818 11.093 1.582 16.094 1.372 4.238-.176 8.238-.345 10.587.775 2.6 1.24 5.064 4.591 7.67 8.138 2.854 3.885 6.088 8.289 10.625 11.249 4.7 3.067 10.132 4.318 14.924 5.42 3.987.918 8.111 1.867 10.042 3.59 2.167 1.934 3.534 5.927 4.981 10.155 1.515 4.424 3.231 9.439 6.48 13.548 3.328 4.208 7.833 7.113 11.809 9.675 3.521 2.27 7.163 4.618 8.352 6.967 1.273 2.517.966 6.762.64 11.257-.328 4.527-.7 9.658.516 14.606a85.281 85.281 0 0 0 3.382 10.147c.983 2.576 1.912 5.008 2.563 7.38l15.43-4.232c-.855-3.12-1.968-6.035-3.044-8.854a72.187 72.187 0 0 1 -2.793-8.261c-.613-2.494-.362-5.96-.1-9.63.448-6.17.955-13.163-2.321-19.637-3.148-6.223-8.892-9.925-13.959-13.192-3.213-2.071-6.248-4.028-7.928-6.152-1.549-1.959-2.687-5.285-3.893-8.806-1.956-5.712-4.172-12.187-9.467-16.911-4.994-4.456-11.428-5.937-17.1-7.244-3.832-.882-7.451-1.715-9.769-3.228-2.1-1.374-4.228-4.263-6.475-7.322-3.491-4.752-7.448-10.138-13.68-13.109-5.935-2.829-12.421-2.558-18.14-2.317-3.967.167-7.716.324-10.341-.557-2.407-.807-5.2-3.125-8.158-5.579-4.476-3.714-9.548-7.923-16.188-9.341-6.379-1.363-12.588.347-18.067 1.856-3.843 1.058-7.475 2.057-10.218 1.773-2.54-.263-5.784-1.941-9.219-3.718-5.131-2.66-10.945-5.66-17.676-5.66s-12.546 3-17.675 5.658c-3.435 1.777-6.68 3.456-9.22 3.718-2.749.285-6.376-.715-10.219-1.773-5.478-1.508-11.688-3.217-18.068-1.855-6.639 1.418-11.712 5.627-16.187 9.342-2.958 2.454-5.751 4.772-8.158 5.579-2.625.88-6.373.723-10.34.557-5.72-.24-12.206-.511-18.139 2.317-6.233 2.971-10.194 8.357-13.681 13.109-2.247 3.059-4.369 5.948-6.473 7.321-2.318 1.513-5.937 2.346-9.769 3.228-5.677 1.307-12.111 2.788-17.1 7.244-5.295 4.725-7.511 11.2-9.466 16.911-1.205 3.521-2.343 6.846-3.893 8.805-1.68 2.124-4.715 4.081-7.928 6.152-5.067 3.267-10.811 6.969-13.959 13.191-3.276 6.475-2.769 13.468-2.322 19.638.266 3.67.518 7.137-.1 9.63a72.321 72.321 0 0 1 -2.794 8.263c-2.109 5.536-4.509 11.813-4.509 18.965a8 8 0 0 0 6.7 7.894c25.981 4.271 52.363 7.713 78.661 10.294-.69 1.745-1.289 3.487-1.863 5.164-1.205 3.521-2.344 6.846-3.893 8.805-1.68 2.124-4.715 4.08-7.928 6.151-5.067 3.267-10.811 6.969-13.959 13.191-3.276 6.475-2.769 13.468-2.322 19.638.266 3.67.518 7.137-.1 9.63a72.282 72.282 0 0 1 -2.794 8.262c-2.102 5.535-4.502 11.812-4.502 18.961v6.792l6.7 1.1c29.569 4.861 59.662 8.652 89.564 11.315a10.049 10.049 0 0 1 -.658.961c-1.68 2.124-4.715 4.081-7.928 6.152-5.067 3.267-10.811 6.969-13.959 13.191-3.276 6.475-2.769 13.468-2.322 19.638.266 3.67.518 7.137-.1 9.63a72.289 72.289 0 0 1 -2.794 8.263c-2.103 5.539-4.503 11.816-4.503 18.968v6.792l6.7 1.1a1219.837 1219.837 0 0 0 197.341 16.108c1.326 0 2.66 0 3.985-.006 72.5-.24 183.979-15.921 185.1-16.079l6.877-.975v-6.94c0-7.148-2.4-13.424-4.509-18.961a72.219 72.219 0 0 1 -2.794-8.267zm-437.242-82.04a85.343 85.343 0 0 0 3.383-10.149c1.216-4.948.844-10.079.516-14.606-.326-4.495-.633-8.74.64-11.257 1.188-2.349 4.83-4.7 8.351-6.966 3.976-2.562 8.481-5.467 11.809-9.675 3.25-4.109 4.966-9.124 6.48-13.549 1.164-3.4 2.284-6.632 3.8-8.78.3.025.6.054.9.079l.105-1.268c.06-.058.114-.13.175-.185 1.931-1.723 6.054-2.672 10.042-3.59 4.792-1.1 10.223-2.353 14.924-5.421 4.536-2.96 7.77-7.363 10.624-11.248 2.605-3.547 5.067-6.9 7.669-8.138 2.348-1.12 6.349-.953 10.585-.774 5 .21 10.669.447 16.094-1.372 5.24-1.757 9.518-5.306 13.291-8.437 3.353-2.782 6.52-5.411 9.311-6.006 2.56-.547 6.407.513 10.48 1.634 4.862 1.338 10.374 2.856 16.112 2.262 5.554-.575 10.532-3.15 14.924-5.422 3.85-1.992 7.486-3.873 10.324-3.873s6.473 1.881 10.322 3.872c4.393 2.272 9.371 4.848 14.925 5.422 5.738.6 11.25-.923 16.111-2.262 4.074-1.122 7.919-2.18 10.48-1.634 2.791.6 5.958 3.224 9.311 6.006 3.773 3.131 8.05 6.681 13.291 8.437 5.426 1.818 11.094 1.582 16.094 1.372 4.237-.177 8.239-.344 10.587.775 2.6 1.24 5.063 4.591 7.669 8.138 2.854 3.885 6.088 8.288 10.625 11.249 4.7 3.067 10.132 4.318 14.924 5.421 3.987.918 8.111 1.867 10.042 3.59 2.167 1.934 3.534 5.927 4.981 10.154 1.515 4.425 3.231 9.439 6.48 13.548 3.328 4.208 7.833 7.113 11.809 9.675 3.521 2.27 7.163 4.618 8.352 6.967 1.273 2.517.966 6.762.64 11.257-.1 1.377-.2 2.815-.26 4.282a24.055 24.055 0 0 0 -4.377-2.718c-5.934-2.828-12.419-2.559-18.14-2.317-3.969.166-7.717.323-10.341-.557-2.407-.807-5.2-3.125-8.158-5.579-1.264-1.049-2.579-2.137-3.96-3.191l10.25-10.251-11.313-11.313-14.941 14.944c-5.039-.216-9.9 1.117-14.287 2.326-3.843 1.058-7.476 2.057-10.218 1.773-2.54-.263-5.784-1.941-9.219-3.718-5.131-2.659-10.945-5.659-17.676-5.659s-12.546 3.008-17.675 5.662c-3.435 1.777-6.68 3.456-9.22 3.718-2.749.285-6.376-.715-10.218-1.773-5.479-1.508-11.689-3.218-18.068-1.855-6.639 1.418-11.712 5.627-16.188 9.341-2.958 2.455-5.751 4.773-8.158 5.58-2.625.879-6.372.723-10.34.557-5.721-.239-12.207-.51-18.139 2.317-6.232 2.971-10.189 8.357-13.68 13.109-2.247 3.059-4.369 5.948-6.473 7.321-2.318 1.513-5.937 2.346-9.769 3.228-5.677 1.307-12.111 2.788-17.1 7.244a27.388 27.388 0 0 0 -6.537 9.237c-28.439-2.417-57.088-5.88-85.314-10.327.63-2.159 1.472-4.359 2.337-6.627zm252.516 117.268a1203.826 1203.826 0 0 1 -190.859-14.636c.636-2.15 1.478-4.355 2.343-6.622a85.343 85.343 0 0 0 3.383-10.149c1.216-4.948.844-10.079.516-14.606-.326-4.494-.633-8.74.64-11.258 1.189-2.349 4.83-4.7 8.352-6.966 3.975-2.562 8.481-5.467 11.809-9.675 3.25-4.109 4.966-9.124 6.48-13.549 1.447-4.227 2.813-8.22 4.98-10.153 1.931-1.723 6.054-2.672 10.042-3.59 4.792-1.1 10.224-2.353 14.925-5.421 4.536-2.96 7.77-7.363 10.624-11.248 2.605-3.547 5.067-6.9 7.669-8.138 2.348-1.12 6.35-.952 10.586-.775 5 .209 10.667.446 16.094-1.372 5.241-1.757 9.518-5.306 13.291-8.437 3.353-2.783 6.521-5.411 9.311-6.007 2.563-.545 6.408.513 10.48 1.634 4.863 1.338 10.373 2.857 16.112 2.262 5.554-.575 10.532-3.15 14.925-5.422 3.849-1.995 7.485-3.872 10.323-3.872s6.473 1.881 10.322 3.873c4.392 2.272 9.371 4.848 14.925 5.422 5.739.6 11.25-.923 16.112-2.262 4.073-1.121 7.923-2.18 10.48-1.634 2.791.6 5.958 3.224 9.311 6.006 3.773 3.131 8.05 6.681 13.291 8.437 5.426 1.818 11.093 1.582 16.094 1.372 4.236-.176 8.238-.345 10.587.775 2.6 1.24 5.064 4.591 7.67 8.138 2.854 3.885 6.088 8.288 10.625 11.249 4.7 3.067 10.132 4.317 14.924 5.42 3.987.918 8.111 1.867 10.042 3.59 2.167 1.934 3.534 5.927 4.981 10.155 1.515 4.424 3.231 9.439 6.48 13.548 3.328 4.208 7.833 7.113 11.809 9.675 3.521 2.27 7.163 4.618 8.352 6.967 1.273 2.517.966 6.762.64 11.257-.328 4.527-.7 9.658.516 14.605a85.381 85.381 0 0 0 3.383 10.15c.839 2.2 1.657 4.34 2.286 6.43-26.809 3.564-114.685 14.627-174.856 14.827z"/><path d="m184 348.683h16v22.627h-16z" transform="matrix(.707 -.707 .707 .707 -198.321 241.205)"/><path d="m236 319.052h16v17.889h-16z" transform="matrix(.894 -.447 .447 .894 -120.925 143.748)"/><path d="m304 303.997h16v24h-16z"/><path d="m372.686 327.997h22.627v16h-22.627z" transform="matrix(.707 -.707 .707 .707 -125.114 369.94)"/><path d="m428.686 359.997h22.627v16h-22.627z" transform="matrix(.707 -.707 .707 .707 -131.34 418.911)"/><path d="m120 252.677h16v22.627h-16z" transform="matrix(.707 -.707 .707 .707 -149.179 167.831)"/><path d="m172 223.046h16v17.889h-16z" transform="matrix(.894 -.447 .447 .894 -84.746 104.99)"/><path d="m240 207.99h16v24h-16z"/><path d="m308.686 231.99h22.627v16h-22.627z" transform="matrix(.707 -.707 .707 .707 -75.973 296.566)"/><path d="m72 144.683h16v22.627h-16z" transform="matrix(.707 -.707 .707 .707 -86.875 102.259)"/><path d="m124 115.052h16v17.889h-16z" transform="matrix(.894 -.447 .447 .894 -41.517 72.123)"/><path d="m192 99.997h16v24h-16z"/><path d="m260.686 123.997h22.627v16h-22.627z" transform="matrix(.707 -.707 .707 .707 -13.669 230.994)"/><path d="m316.686 155.997h22.627v16h-22.627z" transform="matrix(.707 -.707 .707 .707 -19.894 279.965)"/></svg>