<svg id="outline" height="512" viewBox="0 0 512 512" width="512" xmlns="http://www.w3.org/2000/svg"><g fill="#f23f00"><circle cx="120" cy="64" r="40"/><circle cx="120" cy="168" r="40"/><circle cx="120" cy="272" r="40"/></g><g opacity=".3"><path d="m144 280h-16c0-10.738-11.507-16.808-11.624-16.868l7.2-14.288c.836.418 20.424 10.45 20.424 31.156z" fill="#fcfcfc"/></g><g opacity=".3"><path d="m144 176h-16c0-10.738-11.507-16.808-11.624-16.868l7.2-14.288c.836.418 20.424 10.45 20.424 31.156z" fill="#fcfcfc"/></g><g opacity=".3"><path d="m144 72h-16c0-10.738-11.507-16.808-11.624-16.868l7.2-14.288c.836.418 20.424 10.45 20.424 31.156z" fill="#fcfcfc"/></g><circle cx="248" cy="64" fill="#f23f00" r="40"/><circle cx="248" cy="168" fill="#f23f00" r="40"/><circle cx="248" cy="272" fill="#f23f00" r="40"/><g opacity=".3"><path d="m272 280h-16c0-10.738-11.507-16.808-11.624-16.868l7.2-14.288c.836.418 20.424 10.45 20.424 31.156z" fill="#fcfcfc"/></g><g opacity=".3"><path d="m272 176h-16c0-10.738-11.507-16.808-11.624-16.868l7.2-14.288c.836.418 20.424 10.45 20.424 31.156z" fill="#fcfcfc"/></g><g opacity=".3"><path d="m272 72h-16c0-10.738-11.507-16.808-11.624-16.868l7.2-14.288c.836.418 20.424 10.45 20.424 31.156z" fill="#fcfcfc"/></g><circle cx="376" cy="64" fill="#f23f00" r="40"/><circle cx="376" cy="168" fill="#f23f00" r="40"/><circle cx="376" cy="272" fill="#f23f00" r="40"/><g opacity=".3"><path d="m400 280h-16c0-10.738-11.507-16.808-11.624-16.868l7.2-14.288c.836.418 20.424 10.45 20.424 31.156z" fill="#fcfcfc"/></g><g opacity=".3"><path d="m400 176h-16c0-10.738-11.507-16.808-11.624-16.868l7.2-14.288c.836.418 20.424 10.45 20.424 31.156z" fill="#fcfcfc"/></g><g opacity=".3"><path d="m400 72h-16c0-10.738-11.507-16.808-11.624-16.868l7.2-14.288c.836.418 20.424 10.45 20.424 31.156z" fill="#fcfcfc"/></g><path d="m72 272a48.069 48.069 0 0 0 40 47.321v192.679h16v-192.679a47.99 47.99 0 0 0 0-94.641v-9.359a47.99 47.99 0 0 0 0-94.641v-9.359a47.99 47.99 0 0 0 0-94.641v-16.68h-16v16.679a47.99 47.99 0 0 0 0 94.641v9.359a47.99 47.99 0 0 0 0 94.641v9.359a48.069 48.069 0 0 0 -40 47.321zm80 0a32 32 0 1 1 -32-32 32.036 32.036 0 0 1 32 32zm-64-208a32 32 0 1 1 32 32 32.036 32.036 0 0 1 -32-32zm0 104a32 32 0 1 1 32 32 32.036 32.036 0 0 1 -32-32z"/><path d="m128 280h16c0-20.706-19.588-30.738-20.422-31.155l-7.2 14.288c.115.059 11.622 6.129 11.622 16.867z"/><path d="m128 176h16c0-20.706-19.588-30.738-20.422-31.155l-7.2 14.288c.115.059 11.622 6.129 11.622 16.867z"/><path d="m128 72h16c0-20.706-19.588-30.738-20.422-31.155l-7.2 14.288c.115.059 11.622 6.129 11.622 16.867z"/><path d="m200 272a48.069 48.069 0 0 0 40 47.321v192.679h16v-192.679a47.99 47.99 0 0 0 0-94.641v-9.359a47.99 47.99 0 0 0 0-94.641v-9.359a47.99 47.99 0 0 0 0-94.641v-16.68h-16v16.679a47.99 47.99 0 0 0 0 94.641v9.359a47.99 47.99 0 0 0 0 94.641v9.359a48.069 48.069 0 0 0 -40 47.321zm80 0a32 32 0 1 1 -32-32 32.036 32.036 0 0 1 32 32zm-64-208a32 32 0 1 1 32 32 32.036 32.036 0 0 1 -32-32zm0 104a32 32 0 1 1 32 32 32.036 32.036 0 0 1 -32-32z"/><path d="m256 280h16c0-20.706-19.588-30.738-20.422-31.155l-7.2 14.288c.115.059 11.622 6.129 11.622 16.867z"/><path d="m256 176h16c0-20.706-19.588-30.738-20.422-31.155l-7.2 14.288c.115.059 11.622 6.129 11.622 16.867z"/><path d="m256 72h16c0-20.706-19.588-30.738-20.422-31.155l-7.2 14.288c.115.059 11.622 6.129 11.622 16.867z"/><path d="m328 272a48.069 48.069 0 0 0 40 47.321v192.679h16v-192.679a47.99 47.99 0 0 0 0-94.641v-9.359a47.99 47.99 0 0 0 0-94.641v-9.359a47.99 47.99 0 0 0 0-94.641v-16.68h-16v16.679a47.99 47.99 0 0 0 0 94.641v9.359a47.99 47.99 0 0 0 0 94.641v9.359a48.069 48.069 0 0 0 -40 47.321zm80 0a32 32 0 1 1 -32-32 32.036 32.036 0 0 1 32 32zm-64-208a32 32 0 1 1 32 32 32.036 32.036 0 0 1 -32-32zm0 104a32 32 0 1 1 32 32 32.036 32.036 0 0 1 -32-32z"/><path d="m384 280h16c0-20.706-19.588-30.738-20.422-31.155l-7.2 14.288c.115.059 11.622 6.129 11.622 16.867z"/><path d="m384 176h16c0-20.706-19.588-30.738-20.422-31.155l-7.2 14.288c.115.059 11.622 6.129 11.622 16.867z"/><path d="m384 72h16c0-20.706-19.588-30.738-20.422-31.155l-7.2 14.288c.115.059 11.622 6.129 11.622 16.867z"/></svg>