<svg id="Layer_1" enable-background="new 0 0 510 510" height="512" viewBox="0 0 510 510" width="512" xmlns="http://www.w3.org/2000/svg"><g><path d="m343.379 126.73-83.39 98.45-4.15-4.41-13.67-140.423 13.67-80.347h.39z" fill="#005457"/><path d="m255.839 0v220.77l-87.54-93.12 54.25-74.72 32.51-52.93z" fill="#00959a"/><path d="m327.749 153.88v71.3l-71.91-7.98-13.67-61.289 13.67-43.971c27.04 1.96 52.95 15.9 69.04 37.99z" fill="#ecd6af"/><path d="m255.839 111.94v105.26l-38.18-4.23-18.41-95.17 39.74-5.51c5.61-.65 11.25-.76 16.85-.35z" fill="#f6ebd8"/><path d="m379.195 178.813-.223-.314-35.597-51.768c-15.335 2.131-29.839 10.357-39.398 22.538-10.392 13.24-14.876 31.045-11.995 47.628l.733 4.223 43.192 48.4 50.07-16.559c6.705-17.89 4.213-39.005-6.782-54.148z" fill="#f6ebd8"/><path d="m346.782 215.454c-9.182-29.837-40.198-47.709-70.618-40.691l-59.406 14.796 43.902 75.266 99.466-6.001z" fill="#fffdf5"/><path d="m172.807 121.445-42.018 57.873c-11.905 16.396-13.848 39.997-4.833 58.728l.077.163 3.821 8.189c33.851 8.204 73.715 17.929 74.533 18.427 1.426.868 29.636-27.933 29.636-27.933l-47.101-116.982z" fill="#fffdf5"/><path d="m208.93 255-58.761-184.167 56.831-19.239 61.968 193.639z" fill="#ffde55"/><path d="m383.729 238.16-.09.17-126.17 271.67h-1.63l-13.67-154.32 13.67-118.05c35.13-.39 70.19-8.44 102.84-24.13l29.58-14.22c2.85 12.89 1.42 26.89-4.53 38.88z" fill="#005457"/><path d="m255.839 237.63v272.37h-3l-126.81-271.79-.07-.16c-5.46-11.34-6.89-24.46-4.54-36.69l29.04 13.5c33.52 15.59 69.48 23.18 105.38 22.77z" fill="#00959a"/></g></svg>