<svg height="511pt" viewBox="-1 0 511.999 511" width="511pt" xmlns="http://www.w3.org/2000/svg"><path d="m55.429688 251.90625c-2.425782 5.085938-.339844 7.445312-3.421876 10.609375-1.308593 1.371094-3.183593 2.160156-4.8125 2.289063-8.34375.683593-14.160156 8.75-12.601562 16.558593.707031 3.488281-1.347656 7.394531-5.144531 8.511719-7.042969 1.976562-12.222657 10.738281-8.753907 18.886719 1.53125 3.757812.097657 7.511719-3.167968 9.429687-7.785156 4.429688-8.800782 14.609375-4.460938 20.332032 2.425782 3.289062 1.511719 7.648437-1.046875 9.890624-6.050781 5.214844-6.082031 15.558594 0 20.804688 2.546875 2.230469 3.484375 6.585938 1.046875 9.890625-4.316406 5.683594-3.378906 15.871094 4.460938 20.332031 3.25 1.910156 4.707031 5.65625 3.167968 9.429688-2.464843 5.785156-.585937 12.191406 3.679688 16.011718 4.480469 3.96875 6.925781 2.082032 9.265625 6.152344 2.527344 4.171875-.324219 5.410156 1.113281 11.066406 1.703125 6.34375 6.792969 10.265626 12.441406 10.726563 3.46875.269531 6.632813 2.957031 6.832032 7.226563.273437 8.828124 8.621094 14.625 15.859375 13.476562 3.878906-.566406 7.402343 2.070312 8.230469 5.582031 1.84375 7.800781 10.824218 12.722657 18.378906 9.765625 3.1875-1.179687 7.234375-.175781 9.238281 3.695313 2.292969 4.578125 6.875 7.339843 11.671875 7.6875 8.355469.402343 9.132812-5.074219 14.929688-2.855469 3.578124 1.1875 3.34375 3.832031 7.828124 5.972656 3.613282 1.726563 7.441407 1.960938 11.3125.59375 5.070313-1.722656 4.996094-5.074218 9.78125-5.292968 5.28125-.402344 5.296876 4.21875 13.167969 4.636718 4.523438.238282 9.554688-1.875 12.4375-6.367187 1.894531-2.957031 5.835938-4.480469 9.59375-2.628907 4.210938 2.054688 9.320313 1.933594 13.945313-.949218 7.046875-4.75 4.171875-10.542969 11.464844-11.613282 3.023437-.40625 7.210937 2.464844 13.886718-1.886718 7.910156-5.613282 4.101563-10.296875 8.578125-14.320313 1.394531-1.214843 3.1875-1.808593 5.046875-1.742187 4.613282.082031 9.234375-2.101563 12.25-6.714844 4.046875-6.605469.296875-9.390625 3.542969-13.523438 1.164063-1.4375 2.675781-2.480468 4.523437-2.804687 7.472657-1.289063 13.261719-9.484375 10.742188-17.824219-.976562-3.183594.269531-7.355468 4.214844-9.007812 5.28125-2.335938 8.832031-7.851563 8.332031-14.160156-.519531-5.765626-3.546875-6.390626-2.519531-10.847657 1.480468-5.875 7.398437-4.777343 8.597656-14.304687.417969-3.433594-.597656-7.726563-3.441406-10.832032-2.511719-2.75-2.566406-7.136718 0-9.945312 3.730468-4.074219 4.804687-10.59375 1.6875-16.34375-2.539063-4.632812-5.640625-4.035156-6.84375-8.796875-1.03125-4.476563 2-5.046875 2.519531-10.84375.484375-6.125-2.890625-11.753906-8.332031-14.160156-1.71875-.71875-3.09375-2.007813-3.855469-3.695313-2.382813-5.546875 3.007813-8.261718-1.796875-16.597656-2.066406-3.292969-5.316406-5.851562-9.304688-6.539062-1.84375-.324219-3.359374-1.367188-4.523437-2.808594-3.230469-4.113282.453125-7-3.542969-13.523438-3.011718-4.605468-7.628906-6.796875-12.246094-6.714844-4.316406.152344-7.164062-3.152343-7.601562-6.414062-.570312-4.089844-2.683594-7.277344-6.023438-9.648438-6.6875-4.355468-10.859374-1.476562-13.890624-1.886718-2.933594-.429688-5.148438-2.214844-6.070313-4.851563-2.605469-7.332031-11.714844-11.429687-19.339844-7.710937-3.878906 1.910156-7.78125.195312-9.59375-2.628906-2.863281-4.464844-7.894531-6.605469-12.4375-6.367188-7.921875.421875-7.835937 5.042969-13.167969 4.636719-4.800781-.21875-4.699218-3.566407-9.777343-5.289063-4.535157-1.605468-8.960938-.921875-12.585938 1.277344-3.207031 2.121094-3.09375 3.476562-5.332031 4.742188-2.417969 1.367187-5.328125 1.421874-7.769531-.1875-6.265625-4.15625-16.183594-2.164063-20.058594 5.5625-1.960937 3.785156-5.972656 4.90625-9.234375 3.695312-7.558594-2.957031-16.539062 1.964844-18.382812 9.765625-.425782 1.816406-1.511719 3.328125-3.054688 4.355469-3.824219 2.71875-5.324219-.011719-10.984375 1.710937-4.324219 1.339844-7.316406 4.554688-8.648437 7.324219" fill="#fff9eb"/><path d="m295.621094 363.789062c-2.511719-2.75-2.566406-7.136718 0-9.945312 3.730468-4.078125 4.804687-10.59375 1.6875-16.34375-2.539063-4.628906-5.640625-4.035156-6.84375-8.796875-1.03125-4.476563 2-5.046875 2.519531-10.847656.484375-6.121094-2.890625-11.75-8.332031-14.15625-1.71875-.71875-3.09375-2.007813-3.855469-3.699219-2.382813-5.542969 3.007813-8.257812-1.796875-16.59375-2.066406-3.292969-5.316406-5.851562-9.304688-6.539062-1.84375-.324219-3.359374-1.367188-4.523437-2.808594-3.230469-4.113282.453125-7-3.542969-13.519532-3.011718-4.609374-7.628906-6.800781-12.246094-6.714843-.226562.007812-.445312.003906-.660156-.003907-5.484375-.265624-10.671875 2.714844-12.480468 7.898438-3.097657 8.886719-1.386719 19.007812 4.757812 26.636719 17.089844 21.226562 25.882812 47.9375 24.757812 75.210937-2.445312 59.152344-51.878906 107.792969-112.445312 107.792969-31.269531.003906-60.347656-12.574219-81.875-35.414063-8.695312-9.222656-21.675781-9.613281-32.058594-4.195312-3.703125 1.933594-5.652344 6.1875-4.648437 10.242188.007812.035156.015625.074218.023437.109374 1.703125 6.339844 6.796875 10.261719 12.441406 10.726563 3.46875.269531 6.636719 2.957031 6.832032 7.226563.273437 8.824218 8.621094 14.625 15.859375 13.476562 3.882812-.566406 7.402343 2.070312 8.234375 5.582031 1.839844 7.800781 10.820312 12.722657 18.378906 9.765625 3.1875-1.179687 7.230469-.175781 9.234375 3.695313 2.296875 4.578125 6.875 7.339843 11.671875 7.6875 8.355469.402343 9.132812-5.074219 14.929688-2.855469 3.578124 1.1875 3.347656 3.832031 7.832031 5.972656 3.609375 1.726563 7.4375 1.960938 11.3125.59375 5.066406-1.722656 4.992187-5.074218 9.777343-5.292968 5.28125-.402344 5.296876 4.21875 13.167969 4.636718 4.523438.238282 9.554688-1.875 12.4375-6.363281 1.894531-2.957031 5.835938-4.484375 9.59375-2.632813 4.210938 2.054688 9.324219 1.9375 13.945313-.945312 7.046875-4.75 4.171875-10.546875 11.464844-11.617188 3.023437-.40625 7.214843 2.464844 13.886718-1.886718 7.910156-5.609375 4.101563-10.296875 8.578125-14.320313 1.394531-1.214843 3.191407-1.804687 5.046875-1.742187 4.617188.085937 9.234375-2.101563 12.25-6.714844 4.046875-6.601562.296875-9.390625 3.542969-13.519531 1.167969-1.441407 2.679687-2.484375 4.523437-2.808594 7.472657-1.289063 13.261719-9.480469 10.746094-17.820313-.976562-3.1875.265625-7.359374 4.210938-9.011718 5.28125-2.335938 8.832031-7.851563 8.332031-14.160156-.519531-5.761719-3.546875-6.390626-2.515625-10.847657 1.480469-5.875 7.394531-4.777343 8.597656-14.304687.410156-3.433594-.601562-7.726563-3.445312-10.832032zm0 0" fill="#d3cdbf"/><path d="m232.984375 358.816406c0 44.003906-35.671875 79.675782-79.671875 79.675782-44.003906 0-79.675781-35.671876-79.675781-79.675782 0-44 35.671875-79.671875 79.675781-79.671875 44 0 79.671875 35.671875 79.671875 79.671875zm0 0" fill="#60f375"/><path d="m184.941406 285.683594c-7.921875 11.628906-6.734375 27.605468 3.582032 37.921875 9.40625 9.40625 14.585937 21.910156 14.585937 35.210937 0 13.300782-5.179687 25.808594-14.585937 35.210938-9.40625 9.40625-21.910157 14.585937-35.210938 14.585937s-25.808594-5.179687-35.214844-14.585937c-10.3125-10.3125-26.292968-11.503906-37.921875-3.578125 12.242188 28.261719 40.371094 48.042969 73.136719 48.042969 44.003906 0 79.671875-35.671876 79.671875-79.675782 0-32.761718-19.777344-60.890625-48.042969-73.132812zm0 0" fill="#28d05b"/><path d="m171.59375 338.660156c-2.652344-2.351562-5.730469-2.832031-8.589844-1.398437l-22.285156 41.433593c.886719 3.300782 2.675781 5.820313 4.925781 6.457032 9.257813 2.636718 19.667969.335937 26.980469-6.902344 11.15625-11.050781 10.695312-29.199219-1.03125-39.589844zm0 0" fill="#28d05b"/><path d="m162.050781 343.167969c2.09375-3.59375.921875-9.847657-2.03125-10.574219-9.011719-2.222656-18.964843.160156-26.023437 7.148438-10.664063 10.5625-10.847656 27.824218-.078125 38.554687 2.125 2.105469 4.667969 2.136719 6.800781.398437 1.628906-1.328124.476562.242188 21.332031-35.527343zm0 0" fill="#ff7c8b"/><path d="m281.359375 54.363281c-1.167969 1.226563-2.84375 1.933594-4.304687 2.046875-7.464844.613282-12.667969 7.828125-11.273438 14.8125.632812 3.125-1.203125 6.617188-4.605469 7.617188-6.300781 1.765625-10.933593 9.605468-7.828125 16.894531 1.371094 3.363281.085938 6.71875-2.835937 8.4375-6.964844 3.960937-7.871094 13.070313-3.988281 18.1875 2.171874 2.941406 1.351562 6.84375-.9375 8.847656-5.410157 4.667969-5.441407 13.917969 0 18.613281 2.277343 1.992188 3.121093 5.890626.9375 8.847657-3.859376 5.085937-3.019532 14.199219 3.992187 18.1875 2.910156 1.710937 4.210937 5.058593 2.832031 8.433593-2.203125 5.179688-.523437 10.910157 3.292969 14.324219 4.007813 3.550781 6.195313 1.863281 8.289063 5.503907 2.261718 3.730468-.292969 4.84375.996093 9.902343 1.523438 5.671875 6.078125 9.179688 11.128907 9.59375 3.101562.242188 5.933593 2.644531 6.113281 6.464844.242187 7.898437 7.710937 13.085937 14.1875 12.058594 3.46875-.507813 6.621093 1.851562 7.363281 4.992187 1.648438 6.980469 9.679688 11.382813 16.441406 8.734375 2.851563-1.054687 6.46875-.15625 8.261719 3.308594 2.054687 4.09375 6.152344 6.5625 10.445313 6.878906 7.472656.359375 8.167968-4.542969 13.351562-2.554687 3.203125 1.058594 2.996094 3.425781 7.007812 5.339844 3.230469 1.542968 6.65625 1.753906 10.121094.53125 4.53125-1.542969 4.464844-4.539063 8.746094-4.734376 4.726562-.359374 4.738281 3.773438 11.78125 4.148438 4.042969.214844 8.546875-1.675781 11.125-5.691406 1.695312-2.648438 5.222656-4.011719 8.582031-2.355469 3.769531 1.835937 8.339844 1.734375 12.476563-.847656 6.304687-4.246094 3.730468-9.429688 10.253906-10.390625 2.707031-.363282 6.453125 2.207031 12.425781-1.6875 7.074219-5.019532 3.667969-9.210938 7.671875-12.808594 1.25-1.089844 2.855469-1.617188 4.515625-1.558594 4.128907.074219 8.261719-1.882812 10.957031-6.007812 3.621094-5.90625.269532-8.398438 3.171876-12.09375 1.042968-1.289063 2.394531-2.222656 4.042968-2.511719 6.6875-1.15625 11.867188-8.484375 9.613282-15.945313-.875-2.847656.238281-6.582031 3.769531-8.058593 4.726562-2.089844 7.902343-7.023438 7.453125-12.667969-.464844-5.15625-3.171875-5.71875-2.253906-9.703125 1.328124-5.253906 6.617187-4.273437 7.695312-12.796875.371094-3.074219-.539062-6.910156-3.082031-9.691406-2.246094-2.460938-2.292969-6.382813 0-8.894532 3.335937-3.648437 4.300781-9.476562 1.511719-14.625-2.273438-4.140624-5.050782-3.605468-6.125-7.867187-.921876-4.007813 1.785156-4.519531 2.253906-9.703125.433594-5.476562-2.582032-10.511719-7.453125-12.664062-1.535157-.644532-2.769531-1.796876-3.449219-3.308594-2.132812-4.960938 2.691406-7.390625-1.609375-14.847656-1.847656-2.945313-4.753906-5.234376-8.324219-5.851563-1.648437-.289063-3.003906-1.222656-4.046875-2.511719-2.886719-3.675781.40625-6.261718-3.167969-12.09375-2.695312-4.121094-6.828124-6.082031-10.957031-6.007812-3.859375.132812-6.40625-2.820313-6.800781-5.742188-.511719-3.65625-2.398438-6.507812-5.390625-8.628906-5.976563-3.898438-9.710937-1.320312-12.421875-1.6875-2.625-.382812-4.605469-1.980469-5.433594-4.339844-2.328125-6.558594-10.476562-10.226562-17.296875-6.894531-3.472656 1.707031-6.964843.171875-8.582031-2.355469-2.566406-3.992187-7.0625-5.910156-11.128906-5.695312-7.089844.378906-7.007813 4.511718-11.78125 4.152344-4.292969-.199219-4.203125-3.191407-8.746094-4.734376-4.058594-1.433593-8.015625-.824218-11.261719 1.144532-2.867187 1.894531-2.765625 3.109375-4.765625 4.238281-2.167968 1.226563-4.769531 1.273437-6.953125-.164063-5.605469-3.71875-14.476562-1.9375-17.945312 4.972657-1.75 3.386719-5.339844 4.390625-8.261719 3.308593-6.761719-2.644531-14.792969 1.757813-16.441406 8.734376-.382813 1.625-1.355469 2.976562-2.730469 3.898437-3.421875 2.433594-4.765625-.011719-9.828125 1.53125-3.867188 1.195313-6.546875 4.070313-7.738281 6.550781-2.167969 4.542969-.300781 6.652344-3.058594 9.484375m-49.390625 226.164063" fill="#fff9eb"/><path d="m499.292969 144.960938c-2.246094-2.460938-2.292969-6.382813 0-8.898438 3.335937-3.644531 4.300781-9.476562 1.511719-14.621094-2.273438-4.140625-5.050782-3.609375-6.125-7.867187-.921876-4.007813 1.785156-4.519531 2.253906-9.703125.433594-5.476563-2.582032-10.515625-7.453125-12.664063-1.535157-.644531-2.769531-1.800781-3.449219-3.308593-2.132812-4.960938 2.691406-7.390626-1.609375-14.847657-1.847656-2.945312-4.753906-5.234375-8.324219-5.851562-1.648437-.289063-3.003906-1.222657-4.046875-2.511719-2.886719-3.675781.40625-6.261719-3.167969-12.09375-.027343-.042969-.054687-.085938-.082031-.125-3.484375-5.214844-10.960937-5.800781-15.453125-1.421875l-2.75 2.683594c-4.519531 4.402343-6.808594 10.34375-6.714844 16.269531.039063 2.328125.875 4.582031 2.398438 6.347656 2.933594 3.40625 5.664062 7.035156 8.148438 10.882813 29.382812 45.460937 16.296874 106.351562-29.167969 135.730469-15.917969 10.289062-34.320313 15.726562-53.210938 15.726562 0 0 0 0-.003906 0-28.058594 0-54.246094-11.78125-72.6875-32.121094-7.851563-8.65625-37.328125-7.425781-33.46875 8.324219.011719.042969.023437.082031.03125.125 1.523437 5.671875 6.078125 9.183594 11.128906 9.597656 3.101563.238281 5.9375 2.644531 6.113281 6.464844.242188 7.894531 7.710938 13.082031 14.1875 12.054687 3.472657-.507812 6.621094 1.851563 7.363282 4.992188 1.648437 6.980469 9.683594 11.382812 16.441406 8.734375 2.851562-1.054687 6.472656-.15625 8.261719 3.308594 2.054687 4.09375 6.152343 6.5625 10.445312 6.878906 7.472657.359375 8.167969-4.542969 13.355469-2.554687 3.199219 1.058593 2.992188 3.421874 7.003906 5.339843 3.230469 1.542969 6.65625 1.753907 10.121094.53125 4.535156-1.542969 4.46875-4.539062 8.746094-4.738281 4.726562-.355469 4.738281 3.777344 11.78125 4.152344 4.042968.214844 8.546875-1.679688 11.125-5.695313 1.695312-2.644531 5.222656-4.007812 8.582031-2.351562 3.769531 1.835937 8.339844 1.730469 12.476563-.847657 6.304687-4.25 3.730468-9.433593 10.257812-10.390624 2.703125-.367188 6.453125 2.203124 12.421875-1.6875 7.074219-5.019532 3.671875-9.210938 7.675781-12.8125 1.246094-1.085938 2.851563-1.617188 4.511719-1.558594 4.128906.074218 8.261719-1.882813 10.960937-6.007813 3.617188-5.90625.265626-8.398437 3.167969-12.09375 1.042969-1.289062 2.394531-2.222656 4.046875-2.511719 6.683594-1.15625 11.863282-8.484374 9.613282-15.945312-.875-2.847656.238281-6.582031 3.769531-8.058594 4.722656-2.089844 7.898437-7.023437 7.453125-12.667968-.464844-5.15625-3.175782-5.71875-2.253906-9.703126 1.324218-5.253906 6.617187-4.273437 7.691406-12.796874.375-3.070313-.535156-6.90625-3.078125-9.6875zm0 0" fill="#d3cdbf"/><path d="m443.261719 140.515625c0 39.363281-31.914063 71.277344-71.277344 71.277344-39.367187 0-71.277344-31.914063-71.277344-71.277344 0-39.367187 31.910157-71.277344 71.277344-71.277344 39.363281 0 71.277344 31.910157 71.277344 71.277344zm0 0" fill="#60f375"/><path d="m431.847656 101.828125c-5.652344-8.746094-12.90625-15.824219-21.117187-21.136719-9.769531 9.742188-11.765625 25.300782-3.976563 37.351563 12.390625 19.171875 6.871094 44.851562-12.300781 57.242187-19.21875 12.414063-44.816406 6.917969-57.238281-12.300781-7.789063-12.054687-22.792969-16.625-35.6875-11.722656 1.46875 9.667969 4.941406 19.191406 10.59375 27.9375 21.367187 33.0625 65.488281 42.546875 98.550781 21.179687 33.0625-21.367187 42.542969-65.488281 21.175781-98.550781zm0 0" fill="#28d05b"/><path d="m371.984375 159.503906c-10.472656 0-18.988281-8.519531-18.988281-18.988281 0-10.472656 8.515625-18.988281 18.988281-18.988281s18.988281 8.515625 18.988281 18.988281c0 10.46875-8.515625 18.988281-18.988281 18.988281zm0 0" fill="#ffb545"/><path d="m306.601562 344.578125c.015626-6.167969-2.417968-9.671875-2.738281-10.667969-2.046875-3.863281-5.050781-5.917968-6.046875-6.789062 6.539063-13.460938-.273437-26.1875-10.1875-30.269532.039063-.472656.242188-1.324218.328125-1.773437 2.5625-12.5-5.808593-23.5-16.800781-25.542969-.023438-.203125 0-1.5 0-1.703125.410156-11.507812-10.226562-21.953125-21.980469-21.476562-1.289062-10-10.8125-20.71875-26.382812-17.945313-4.460938-11.984375-18.4375-17.265625-29.621094-11.8125-.007813.011719-.027344.023438-.039063.023438-4.363281-6.679688-11.792968-10.167969-19.140624-9.761719-7.472657.21875-11.34375 4.121094-12.339844 4.621094-.996094-.792969-3.351563-3.433594-7.667969-4.859375h-.011719c-8.078125-2.859375-17.21875-1.28125-24.152344 6.582031-10.089843-6.597656-24.910156-3.078125-30.714843 8.40625 0 .007813-.007813.007813-.007813.007813-.019531.050781-.042968.082031-.0625.109374-11.5625-4.421874-25.144531 2.71875-28.152344 14.929688-10.359374-.953125-18.484374 4.472656-22.179687 12.011719-2.402344 4.96875 1.277344 10.714843 6.722656 10.714843 2.855469 0 5.496094-1.660156 6.742188-4.242187.398437-.933594 2.121093-2.878906 4.113281-3.414063 3.097656-.925781 7.078125 1.5 13.046875-2.71875 3.035156-2.042968 5.246094-5.238281 6.0625-8.777343.300781-1.292969 1.128906-2.507813 2.332031-3.425781 5.5625-4.296876 9.539063 3.457031 19.03125-2.257813 2.746094-1.667969 4.257813-3.621094 5.660156-6.144531 2.15625-4.238282 7.808594-4.097656 9.269532-2.671875 5.71875 3.796875 14.03125 3.585937 20.078125-3.496094 1.382812-1.582031 4.050781-2.601563 7.3125-1.503906 2.558593 1.03125 4.808593 5.71875 12.828125 5.71875 4.011718.074219 6.789062-1.621094 9.359375-3.457031 3.210937-2.316407 7.585937-1.074219 9.324219 1.722656 2.796874 4.339844 7.566406 6.871094 12.558593 6.871094 5.164063 0 6.3125-2.203126 9.359375-2.203126 2.671875-.066406 5.539063 1.863282 6.246094 4.132813.011719.011719.011719.011719.011719.011719 1.949219 5.808594 7.773437 9.851562 13.761719 9.851562 4.585937-.039062 5.414062-1.644531 9.023437.554688 1.8125 1.394531 2.46875 2.441406 2.828125 4.472656 1.136719 7.960938 8.179688 13.304688 15.167969 12.878906 3.789062 0 6.558593 3.1875 6.644531 5.964844.089844 1.464844-.183594 3.519531.496094 6.203125 1.296875 5.191406 6.050781 9.785156 11.722656 10.769531 1.585938.257813 3.066406 1.332032 4.171875 3.007813.9375 1.707031.9375 2.144531 1.027344 2.957031 0 .703125-.277344 1.765625-.398438 2.460938-.769531 3.640624-.796875 6.820312.726563 10.308593 1.753906 3.539063 4.136718 6.0625 7.726562 7.585938 3.203125 1.4375 4.925782 5.296875 3.21875 9.015625-1.265625 2.304687-2.113281 4.835937-2.101562 7.429687 0 7.996094 5.765625 11.742188 6.761718 12.667969 1.515626 1.257812 2.121094 3.269531 2.121094 4.921875.03125 5.074219-5.414062 5.5625-5.414062 14.230469 0 3.722656 1.371094 7.28125 3.863281 10.019531 1.867187 1.929687 1.542969 4.851563 1.542969 4.851563-.75 5.875-5.945313 4.386718-8.457032 13.535156-1.441406 5.96875 1.316407 9.8125 1.863282 11.242187 1.363281 3.269531-.140625 7.167969-3.414063 8.636719-7.113281 3.003906-10.519531 10.890625-8.347656 18.046875 1.191406 4.109375-1.914063 7.777344-4.878906 8.265625-5.519531.949219-10.34375 5.378906-11.703125 10.644531-1.195313 4.507813.398437 5.738281-1.414063 9.074219-1.382812 1.984375-3.25 3.214844-5.6875 3.214844-3.539062-.199219-7.445312 1.132812-10.277343 3.65625-4.398438 3.839844-4.640626 8.507812-5.609376 11.394531-.691406 1.5-3.109374 3.328125-5.4375 3.445313-.449218.050781-1.589843-.125-2.039062-.199219-7.785156-1.34375-13.253906 1.550781-16.355469 7.167969-1.914062 3.703124-1.699219 3.902343-3.613281 5.332031-2.34375 1.375-4.628906 1.414062-6.542969.46875-.011719 0-.011719 0-.023437 0-6.828125-3.402344-15.039063-1.085938-19.140625 5.316406-1.15625 1.871094-3.410157 2.9375-5.457031 2.9375-4.605469 0-5.878907-4.679687-13.078126-4.679687-6.761718 0-9.308593 3.101562-11.402343 4.78125-1.191407.996093-2.6875 1.425781-4.152344 1.425781-2.472656-.027344-3.886719-1.054688-5.160156-2.511719-3.414063-3.855469-7.765625-5.476562-11.632813-5.476562-5.582031 0-7.640625 3.328124-11.421875 3.414062-2.160156 0-4.234375-.976562-5.90625-3.664062-2.964843-5.941407-10.058593-10.070313-18.574219-7.230469-3.457031 1.316406-7.628906-1.21875-8.398437-4.523438-1.960937-7.949219-9.527344-12.351562-16.601563-11.253906-2.152343.421875-6.847656-1.144531-7.300781-6.433594-.304687-7.835937-6.355469-13.746093-13.710937-14.332031-3.574219-.386719-6.554688-3.601562-5.808594-8.085938.222656-1.636718.878906-5.671874-1.910156-10.089843-3.046875-5.277344-7.433594-6.070313-8.867188-6.742188-3.039062-1.234375-5.152344-5.015625-3.574218-8.785156 3.148437-7.792969-.492188-15.332031-6.304688-18.671875-3.949219-2.191406-3.976562-7.21875-2.230469-9.464844 3.910157-5.285156 4.433594-13.363281-2.179687-19.976562-2.210938-1.847656-3.015625-6.507813.046875-9.542969 5.457031-4.875 6.894531-13.359375 2.074219-20.007813-1.566407-1.980468-1.765626-7.132812 2.289062-9.382812 6.644531-3.820312 9.277344-12.21875 6.253906-18.792969-.347656-.816406-.507812-1.59375-.507812-2.449219-.019532-2.925781 2.160156-5.71875 4.402344-6.3125 3.488281-1.054687 6.125-3.0625 7.949218-5.636718 2.476563-3.5 3.28125-7.726563 2.5-11.554688-.28125-1.402344.015625-3.058594.914063-4.503906 3.125-5.058594-.59375-11.414062-6.34375-11.414062-2.589844 0-4.957031 1.316406-6.332031 3.515624 0 0 0 0-.011719.011719-2.757813 4.445313-3.933594 9.84375-2.886719 15.246094-12.902344 3.769531-18.40625 19.472656-13.425781 28.964844-.011719.007812-.019531.007812-.03125.019531-11.429688 6.503906-13.8281252 21.625-6.792969 31.164062-4.449219 3.921876-7 9.730469-7 15.933594 0 6.195313 2.550781 12.003906 7 15.925782-7.0234375 9.523437-4.664062 24.601562 6.734375 31.121093 0 .011719 0 .011719.007813.011719.03125.019531.0625.039062.082031.050781-4.824219 13.78125 2.195312 25.117188 13.394531 29-2.296875 11.710938 6.378906 24.347657 19.332031 25.335938.007813.042969.007813.089843.007813.140625.453125 12.902344 12.445312 22.265625 24.3125 20.527344 2.9375 12.078124 16.414062 19.433593 28.164062 14.96875.011719.007812.019532.03125.03125.050781 3.773438 7.4375 11.425782 11.800781 19.203125 11.800781 6.167969.039062 10.253907-2.640625 11.589844-3.277344 0 0 .925781 1.042969 1.636719 1.785156 4.601562 4.761719 13.339844 7.921876 22.378906 4.789063 0 0 0 0 .007812-.007813 4.222657-1.363281 6.773438-4.066406 7.769532-4.890624.996094.679687 2.515625 1.898437 4.859375 2.925781 8.238281 3.671875 20.253906 1.707031 26.621093-8.066407 0 0 .011719 0 .019532.007813.996094.328125 10.675781 5.574219 21.425781-1.453125 4.597656-2.980469 6.441406-6.632812 8.292969-10.335938 1.558594.125 8.925781 2.363282 17.210937-3.269531 8.089844-5.726562 8.292969-11.929687 9.144531-14.6875 7.71875.148438 14.699219-3.855469 18.773438-10.277343 3.617188-5.632813 3.15625-10.960938 3.15625-12.898438 11.972656-2.21875 20.175781-14.914062 16.433594-27.296875 5.664062-1.910156 12.90625-9.558594 12.917968-19.851563 0-5.566406-2.109374-9.15625-2.671874-10.417968.0625-.117188.328124-.335938.71875-.675782 10.671874-9.027343 9.90625-22.914062 2.640624-31.035156 3.484376-3.851562 5.40625-8.910156 5.40625-14.238281zm0 0"/><path d="m153.3125 445.964844c48.050781 0 87.144531-39.09375 87.144531-87.148438 0-48.050781-39.09375-87.144531-87.144531-87.144531-48.054688 0-87.148438 39.09375-87.148438 87.144531 0 48.054688 39.09375 87.148438 87.148438 87.148438zm0-159.351563c39.8125 0 72.203125 32.390625 72.203125 72.203125 0 39.816406-32.390625 72.207032-72.203125 72.207032-39.816406 0-72.207031-32.390626-72.207031-72.207032 0-39.8125 32.390625-72.203125 72.207031-72.203125zm0 0"/><path d="m136.652344 387.351562c1.835937 2.472657 4.210937 4.207032 6.945312 4.984376 3.171875.902343 6.402344 1.34375 9.613282 1.34375 9.117187 0 18.035156-3.554688 24.667968-10.125 6.796875-6.726563 10.539063-16.0625 10.277344-25.605469-.265625-9.507813-4.496094-18.578125-11.609375-24.878907v-.003906c-2.984375-2.640625-6.464844-4.015625-9.996094-4.082031-.972656-1.757813-2.636719-3.125-4.742187-3.644531-11.796875-2.90625-24.464844.578125-33.070313 9.097656-6.621093 6.558594-10.277343 15.292969-10.289062 24.597656-.015625 9.269532 3.609375 17.988282 10.210937 24.566406 2.304688 2.285157 5.121094 3.535157 7.992188 3.75zm30.714844-14.410156c-4.730469 4.683594-11.492188 6.691406-17.992188 5.429688l17.992188-33.449219c3.640624 3.5625 5.714843 8.296875 5.855468 13.441406.152344 5.511719-1.925781 10.6875-5.855468 14.578125zm-28.113282-27.890625c3.777344-3.742187 8.933594-5.777343 14.1875-5.777343l-16.613281 30.886718c-2.234375-3.253906-3.445313-7.085937-3.4375-11.105468.007813-5.292969 2.089844-10.265626 5.863281-14.003907zm0 0"/><path d="m505.320312 140.519531c2.949219-3.527343 4.582032-8.046875 4.582032-12.738281 0-3.417969-.875-6.84375-2.53125-9.902344l-.019532-.027344c-1.652343-3.136718-4.140624-5.128906-5.109374-5.90625 5.359374-10.882812.410156-22.742187-9.230469-27.339843.398437-2.292969 2.289062-7.910157-2.261719-15.527344-2.957031-4.71875-7.421875-7.945313-12.558594-9.082031 0-13.398438-10.371094-20.828125-19.769531-20.886719-1.714844-10.234375-11.402344-18.15625-23.773437-16.132813-4.289063-10.457031-16.601563-15.25-26.769532-10.667968-6.226562-8.886719-18.839844-11.585938-28.375-4.609375-.996094-.863281-3.070312-2.878907-6.753906-4.113281-2.242188-.785157-4.5625-1.183594-6.890625-1.183594h-.019531c-3.714844 0-7.390625 1.046875-10.640625 3.015625l-.238281.160156c-2.089844 1.34375-3.585938 2.96875-4.152344 3.644531-9.144532-5.511718-22.234375-2.484375-27.757813 7.679688-10.625-3.597656-22.417969 2.921875-25.394531 13.484375-10.601562-.769531-20.980469 6.316406-21.980469 19.121093-4.125 4.820313-.679687 12.320313 5.6875 12.320313 2.03125 0 3.933594-.796875 5.347657-2.25 4.578124-4.652344 3.246093-8.808594 4.441406-11.464844 0 0 0 0 0-.007812.84375-1.691407 2.941406-3.046875 5.21875-2.832031 8.789062.765624 14.257812-4.792969 15.617187-10.65625.53125-2.285157 3.394531-4.511719 6.59375-3.453126 7.089844 2.644532 14.425781-.835937 17.46875-6.882812 1.878907-3.023438 4.808594-3.488281 7.199219-2.171875 2.226562 1.476563 4.929688 2.320313 7.667969 2.320313 7.589843 0 10.871093-5.386719 12.199219-6.34375.898437-.496094 1.792968-.746094 2.738281-.746094 4.613281 0 4.84375 5.546875 13.804687 5.546875 5.40625.082031 8.566406-3.332031 9.671875-3.765625 1.820313-.996094 5.058594-.332032 6.382813 1.851562 3.835937 5.953125 11.59375 8.285156 18.15625 5.019532 3.199218-1.523438 6.410156.839843 6.960937 2.691406.011719.007812.011719.007812.011719.007812 1.484375 4.472656 5.601562 8.375 11.582031 9.253906 2.632813.335938 5.1875-.449218 6.542969-.449218 1.738281 0 4.21875 1.488281 4.761719 4.382812 0 3.027344 3.804687 12.167969 14.390625 12.167969 2.769531 0 5.042968 2.457031 5.109375 4.496094.058593 1.886719-.128907 3.496093.457031 5.792969 1.1875 4.753906 5.566406 9.273437 11.113281 10.21875 1.175781.191406 2.34375 1.035156 3.199219 2.320312 1.144531 2.125.820312 2.308594.457031 4.304688-.738281 3.714843-.691406 6.28125.757813 9.777343 3.738281 8.375 10.277344 5.335938 10.277344 12.25-.335938 2.597657-2.511719 4.328125-2.480469 8.824219 0 7.421875 5.152343 10.851562 6.476562 12.070312 1.667969 1.472657 2.117188 4.964844.285157 6.914063-2.359376 2.578125-3.664063 5.953125-3.652344 9.480469 0 8.117187 5.425781 9.199218 4.828125 13.265625 0 3.925781-5.8125 4.390625-7.539063 11.949219-1.65625 6.828124 2.09375 9.496093 2.09375 12.492187 0 5.648437-5.5 3.800781-9.460937 10.296875-2.132813 3.484375-2.648438 7.761719-1.476563 11.574219.925782 3.078125-1.449218 6.015625-3.742187 6.382812-3.628907.628907-7.023438 2.972657-8.636719 5.25-3.613281 4.503907-2.824219 9.003907-2.945312 10.796875-.054688 1.582032-1.746094 4.449219-5.609376 4.449219-3.457031 0-6.734374 1.269531-9.222656 3.488281-4.492187 3.941406-4.511718 9.078125-5.238281 10.507813-.433594.992187-2.425781 2.472656-4.042969 2.558593-.3125.058594-1.460937-.113281-1.773437-.160156-.996094-.128906-1.71875-.34375-3.464844-.359375-6.5625 0-10.324219 3.617188-12.96875 9.125-.695313 1.414063-.808594 1.632813-1.980469 2.527344-1.648437.953125-3.402344 1.179687-5.0625.390625-6.53125-3.25-14.289062-1.019531-18.175781 5.027344-.90625 1.476562-2.722656 2.261718-4.210937 2.261718-3.777344 0-5.382813-4.675781-12.855469-4.140624-9.242188.382812-8.960938 7.964843-15.417969 4.789062-.648438-.367188-.652344-.488281-1.195312-1.066406-.996094-.976563-.753907-1-2.210938-2.199219-3.09375-2.515625-8.597656-4.40625-13.972656-2.089844-1.582032.703125-1.949219.984375-3.308594 1.632813-2.910156 1.109375-5.628906-.617188-6.472656-2.511719-2.957032-5.890625-10.148438-9.5625-17.605469-6.832031-2.636719 1.007812-5.882813-.996094-6.464844-3.496094-1.816406-7.371094-8.757812-11.679688-15.726562-10.664062-2.53125.414062-5.515625-1.832032-5.628907-4.890626-.722656-8.910156-7.675781-13.683593-12.964843-13.683593-2.898438-.328125-5.085938-2.839844-4.511719-6.367188.511719-3.242187.144531-6.410156-1.804688-9.488281-3.304687-5.78125-7.457031-5.363281-9.757812-7.292969-.011719 0-.011719-.007812-.011719-.007812-1.269531-1.140625-2.363281-3.460938-1.363281-5.796875 2.589844-6.25 1.046875-13.175782-6.015625-17.859375-3.054687-1.742188-2.890625-5.738281-1.734375-7.167969 4.527344-6.460938 3.328125-13.695312-2-19.023438-1.988281-1.640624-1.953125-5.683593-.011719-7.300781 4.941407-4.097656 6.757813-12.648437 2.070313-18.945312-1.363282-1.796875-1.207032-5.589844 1.675781-7.257813 4.8125-2.867187 7.195313-7.632812 7.160156-12.222656 0-5.546875-3.191406-7.019531-.4375-10.707031.660157-.90625 1.421875-1.414063 2.359375-1.730469 3.964844-1.164062 7.191406-4.003906 8.855469-7.769531 2.191406-4.929688-1.425781-10.515625-6.824219-10.515625-2.828125 0-5.375 1.5625-6.660156 4.082031-10.230469 3.214844-16.714844 15.195313-12.441406 26.234375-9.839844 6.042969-12.171875 19.246094-6.164063 28.113281-8.167969 7.765625-7.859375 21.242188 0 28.734375-5.886719 8.652344-3.890625 21.90625 6.164063 28.117188-3.863282 10.007812.988281 22.066406 12.089844 26.128906-.042969.144531-.238282 1.75-.238282 3.011719-.0625 9.261719 7.25 18.675781 17.667969 19.847656.691406 11.015625 10.613281 19.699219 21.910156 18.644531 3.003907 10.640625 14.839844 17.0625 25.410157 13.484375 5.304687 9.679688 16.855468 13.453125 27.765624 7.679688 6.984376 8.261719 20.175782 9.339843 28.683594 1.535156 9.808594 6.933594 22.15625 4.269531 28.382813-4.613281 9.195312 4.128906 21.3125 1.035156 26.78125-10.667969 9.371093 1.582031 17.128906-2.785156 20.984375-8.832031 1.960937-3.0625 2.386718-5.945313 2.730468-7.308594 9.867188-.03125 19.816407-7.910156 19.816407-20.886719 10.535156-2.320312 17.800781-13.453125 14.851562-24.628906 8.96875-4.269531 14.613281-15.292969 9.171875-27.347656.996094-.863281 2.015625-1.648438 3.527344-3.4375 2.121094-2.519531 3.59375-6.175781 4.03125-10.019531v-.050782c.089844-.707031.140625-1.441406.140625-2.238281-.019531-3.335937-.835937-8.257813-4.601563-12.777344zm0 0"/><path d="m293.226562 140.578125c0 61.945313 69.007813 100.011719 121.492188 66.070313h.011719c3.457031-2.238282 4.453125-6.871094 2.210937-10.328126-1.375-2.128906-3.726562-3.414062-6.273437-3.414062-1.433594 0-2.839844.417969-4.054688 1.195312-42.695312 27.613282-98.449219-3.554687-98.449219-53.523437.015626-35.921875 29.207032-63.878906 63.75-63.878906 35.769532.015625 63.859376 28.992187 63.890626 63.75 0 12.449219-3.585938 24.53125-10.367188 34.9375-2.25 3.445312-1.265625 8.085937 2.179688 10.335937 1.214843.789063 2.628906 1.207032 4.074218 1.207032 2.539063 0 4.878906-1.265626 6.265625-3.386719 8.363281-12.835938 12.777344-27.738281 12.777344-43.09375.027344-42.808594-34.695313-78.691407-78.839844-78.691407-43.324219 0-78.667969 35.238282-78.667969 78.820313zm0 0"/><path d="m345.527344 140.511719c0 14.589843 11.867187 26.460937 26.457031 26.460937s26.457031-11.871094 26.457031-26.460937c0-14.585938-11.867187-26.457031-26.457031-26.457031s-26.457031 11.871093-26.457031 26.457031zm37.976562 0c0 6.355469-5.167968 11.523437-11.519531 11.523437s-11.519531-5.167968-11.519531-11.523437c0-6.351563 5.167968-11.515625 11.519531-11.515625s11.519531 5.164062 11.519531 11.515625zm0 0"/><g style="fill:none;stroke-width:15;stroke-linecap:round;stroke-linejoin:round;stroke:#000;stroke-miterlimit:10" transform="matrix(.995944 0 0 .995944 -.000996 .401897)"><path d="m101.635862 466.356716v-14.998329"/><path d="m264.644641 380.351651v-14.998329"/><path d="m40.328621 347.546728 10.605514 10.609435"/><path d="m168.139961 469.859203h14.998329"/><path d="m215.943214 268.150498-10.605514-10.609436"/><path d="m118.136378 253.84639h-15.002252"/><path d="m353.826653 43.603071 9.421022-9.421022"/><path d="m441.753575 208.55724 9.4171-9.421022"/><path d="m290.809352 185.742051h-13.319646"/><path d="m373.904176 245.182344-9.421021-9.417099"/><path d="m472.977869 136.68763v-13.323569"/><path d="m419.813027 59.762359v-13.319646"/><path d="m282.608121 90.064946h13.319646"/></g></svg>