<svg id="Layer_1" enable-background="new 0 0 510.24 510.24" height="512" viewBox="0 0 510.24 510.24" width="512" xmlns="http://www.w3.org/2000/svg"><g><path d="m510.24 170.56v169.13c0 94.04-76.51 170.55-170.55 170.55h-84.57l-11.317-243.803 11.317-266.437h84.57c94.04 0 170.55 76.51 170.55 170.56z" fill="#005457"/><path d="m255.12 0v510.24h-84.56c-94.05 0-170.56-76.51-170.56-170.55v-169.13c0-94.05 76.51-170.56 170.56-170.56z" fill="#00959a"/><path d="m450.24 178.4v153.44c0 65.29-53.11 118.4-118.4 118.4h-76.72l-18.236-197.215 18.236-193.025h76.72c65.29 0 118.4 53.11 118.4 118.4z" fill="#f6ebd8"/><path d="m255.12 60v390.24h-76.72c-65.29 0-118.4-53.11-118.4-118.4v-153.44c0-65.29 53.11-118.4 118.4-118.4z" fill="#fffdf5"/><path d="m343.33 255.12c0 11.41-4.44 22.13-12.51 30.2l-45.5 45.5c-8.07 8.07-18.79 12.51-30.2 12.51l-7.5-44.105 7.5-44.105 52.95-52.95 22.75 22.76c8.07 8.06 12.51 18.78 12.51 30.19z" fill="#ffde55"/><path d="m255.12 255.12v88.21c-11.41 0-22.13-4.44-30.2-12.51l-22.75-22.75z" fill="#fff68e"/><path d="m308.07 202.17-52.95 52.95-7.5-44.105 7.5-44.105c11.41 0 22.13 4.44 30.2 12.51z" fill="#ff415b"/><path d="m255.12 166.91v88.21l-52.95 52.95-22.75-22.75c-16.65-16.65-16.65-43.75 0-60.39l45.51-45.51c8.06-8.07 18.78-12.51 30.19-12.51z" fill="#ff7c48"/><path d="m120.24 180.24h30v30h-30z" fill="#f6ebd8"/><path d="m90.24 240.24h30v30h-30z" fill="#f6ebd8"/><path d="m390.24 240.24h30v30h-30z" fill="#ecd6af"/><path d="m120.24 300.24h30v30h-30z" fill="#f6ebd8"/><path d="m150.24 360.24h30v30h-30z" fill="#f6ebd8"/><path d="m360.24 300.24h30v30h-30z" fill="#ecd6af"/><path d="m150.24 120.24h30v30h-30z" fill="#f6ebd8"/><path d="m270.12 90.24v30h-15l-7.5-15 7.5-15z" fill="#ecd6af"/><path d="m240.12 90.24h15v30h-15z" fill="#f6ebd8"/><path d="m270.12 390.24v30h-15l-4.874-15 4.874-15z" fill="#ecd6af"/><path d="m240.12 390.24h15v30h-15z" fill="#f6ebd8"/><g fill="#ecd6af"><path d="m330.24 120.24h30v30h-30z"/><path d="m330.24 360.24h30v30h-30z"/><path d="m360.24 180.24h30v30h-30z"/></g></g></svg>