<?xml version="1.0" encoding="UTF-8"?>
<svg xmlns="http://www.w3.org/2000/svg" id="outline" viewBox="0 0 512 512" width="512" height="512"><path d="M336,231.865C424.986,228.976,495.8,180,495.8,120c0-61.856-75.27-112-168.121-112S159.559,58.144,159.559,120Z" style="fill:#b26b16"/><path d="M495.8,120A79.786,79.786,0,0,0,484.75,80c0,.008,38.238,81-233.75,82l52.635,49.345L336,231.865C424.986,228.976,495.8,180,495.8,120Z" style="fill:#935615;opacity:0.5"/><path d="M320,280.088c10.469-14.531,16.242-30.876,16.242-48.088,0-61.856-75.27-112-168.121-112S0,170.144,0,232,75.27,344,168.121,344q3.961,0,7.879-.121S294,316.177,320,280.088Z" style="fill:#c17b1e"/><path d="M317.357,180.389C289.339,144.508,233.03,120,168.121,120,75.27,120,0,170.144,0,232,0,232,109.274,131.435,317.357,180.389Z" style="fill:#fff;opacity:0.2"/><path d="M476.357,68.389C448.339,32.508,392.03,8,327.121,8,234.27,8,159,58.144,159,120,159,120,268.274,19.435,476.357,68.389Z" style="fill:#fff;opacity:0.2"/><path d="M176.738,344c26.983-37.839,84.877-64,151.942-64C421.531,280,496.8,330.144,496.8,392c0,46.934-43.334,95.34-104.8,112Z" style="fill:#d38f29"/><path d="M496.8,392c0-18.692-6.883-36.311-19.039-51.8L476,340s-4,81-108,92l10.01,61.6L392,504C453.468,487.34,496.8,438.934,496.8,392Z" style="fill:#935615;opacity:0.5"/><path d="M328.681,280c-67.066,0-124.96,26.161-151.942,64l25.61,19.035c51.48-25.553,143.491-53.392,273.595-25.1C447.309,303.4,392.1,280,328.681,280Z" style="fill:#fff;opacity:0.2"/><path d="M392,424v80L186.443,427.868a16,16,0,0,1-10.443-15V344Z" style="fill:#eaa549"/><polygon points="368 472 368 448 200 384 200 408 368 472" style="fill:#f4bf7f"/><path d="M76.689,199.283l88,40a8,8,0,0,0,6.621,0l88-40a8,8,0,0,0,0-14.566l-88-40a8.008,8.008,0,0,0-6.621,0l-88,40a8,8,0,0,0,0,14.566ZM168,160.788,236.667,192,168,223.212,99.333,192Z"/><path d="M307.874,225.146A271.423,271.423,0,0,1,168,264,271.42,271.42,0,0,1,28.126,225.146l-8.252,13.707A287.42,287.42,0,0,0,168,280a287.428,287.428,0,0,0,148.126-41.146Z"/><path d="M503.8,120c0-32.678-18.753-63.168-52.806-85.854C417.942,12.127,374.148,0,327.681,0S237.419,12.127,204.366,34.146C172.932,55.087,154.548,82.68,151.9,112.5c-40.369,2.483-77.92,14.205-107.1,33.644C10.753,168.832-8,199.322-8,232s18.753,63.168,52.806,85.854C77.831,339.854,121.577,351.978,168,352v60.865a24.1,24.1,0,0,0,15.665,22.506L389.222,511.5a7.8,7.8,0,0,0,4.867.2l0,.017c30.867-8.366,59.007-25.037,79.236-46.941C493.625,442.8,504.8,416.956,504.8,392c0-32.678-18.753-63.168-52.806-85.854-31.72-21.131-73.333-33.145-117.706-34.08a87.116,87.116,0,0,0,9.614-32.572C434.168,233.922,503.8,182.411,503.8,120ZM213.236,47.462C243.691,27.174,284.335,16,327.681,16S411.67,27.174,442.125,47.462C471.58,67.085,487.8,92.846,487.8,120c0,26.26-15.309,51.4-43.107,70.786-26.791,18.686-62.364,30.17-100.89,32.687-2.024-20.041-11.174-39.045-26.619-55.67q5.193.189,10.374.2a287.428,287.428,0,0,0,148.126-41.146l-8.252-13.707A271.423,271.423,0,0,1,327.56,152a270.791,270.791,0,0,1-30.181-1.7q-2.89-2.117-5.942-4.155C258.383,124.127,214.589,112,168.121,112h-.083C170.9,87.818,186.69,65.147,213.236,47.462ZM8,232c0-27.154,16.222-52.915,45.677-72.538C84.132,139.174,124.775,128,168.121,128s83.99,11.174,114.444,31.462c29.455,19.623,45.677,45.384,45.677,72.538,0,13.991-4.254,27.541-12.635,40.332-28.853,1.44-56.654,7.63-81.088,18.128-26.172,11.246-47.425,26.921-61.76,45.492-1.552.029-3.1.048-4.639.048-43.346,0-83.989-11.174-114.444-31.462C24.222,284.915,8,259.154,8,232ZM384,492.506l-194.778-72.14a8.033,8.033,0,0,1-5.222-7.5v-57.37l200,74.074ZM259.649,366.45l69.424-37.629,61.483,24.594-63.389,37.77ZM488.8,392c0,41.49-37.518,83.563-88.8,101.178V431.03c22.038-4.963,46.856-10.853,63.155-43.451l-14.311-7.156c-13.079,26.158-31.608,30.328-53.062,35.156-.718.162-1.44.329-2.159.492L346.16,398.491l66.494-39.619a8,8,0,0,0-1.124-14.3l-80-32a8,8,0,0,0-6.783.395l-85.046,46.1-49.976-18.51C218.174,308.362,271.284,288,328.681,288c43.346,0,83.989,11.174,114.444,31.462C472.58,339.085,488.8,364.846,488.8,392Z"/><path d="M236.249,87.283l88,40a8,8,0,0,0,6.607.006l88.44-40a8,8,0,0,0,0-14.578l-88.44-40a8.007,8.007,0,0,0-6.607.006l-88,40a8,8,0,0,0,0,14.566Zm91.319-38.5L396.587,80l-69.019,31.216L258.893,80Z"/><path d="M202.848,376.524A8,8,0,0,0,192,384v24a8,8,0,0,0,5.152,7.476l168,64A8,8,0,0,0,376,472V448a8,8,0,0,0-5.152-7.476ZM360,460.392,208,402.486v-6.878l152,57.905Z"/></svg>
