<svg id="flat" height="512" viewBox="0 0 512 512" width="512" xmlns="http://www.w3.org/2000/svg"><path d="m56 280h160v96h-160z" fill="#a07618"/><path d="m159 184h240a48 48 0 0 1 0 96h-240" fill="#d3a126"/><path d="m144 328a92.94 92.94 0 0 0 -32-48h-56v96h88a92.046 92.046 0 0 0 0-48z" fill="#b27019"/><path d="m112 280a92.94 92.94 0 0 1 32 48 92.046 92.046 0 0 1 0 48h72v-96z" fill="#cc760e"/><g opacity=".2"><path d="m330.563 304a47.969 47.969 0 0 0 -41.563-24h-232.649l14.087 24z" fill="#f9f6d9"/></g><path d="m447 224c0-16 21.842-26.36 23.846-33.119 1.915-6.457-6.846-14.752-6.846-21.881s8.761-15.424 6.846-21.881c-2-6.759-13.933-8.872-17.7-14.536-3.871-5.822-1.3-17.648-6.662-21.922-5.41-4.312-16.276.886-22.821-1.444-6.389-2.274-11.552-13.217-18.663-13.217s-12.274 10.943-18.665 13.217c-6.545 2.329-17.412-2.868-22.821 1.444-5.362 4.274-2.791 16.1-6.662 21.922-3.765 5.664-15.694 7.777-17.7 14.536-1.913 6.457 9.848 26.752 9.848 33.881l3 25z" fill="#8ea81e"/><g fill="#647210"><path d="m403.438 190.656-8.875-13.312c8.2-5.469 13.8-14.437 16.646-26.656a69.541 69.541 0 0 0 1.805-17.231l15.974-.913c.091 1.615 1.944 39.783-25.55 58.112z"/><path d="m373 149h16v32h-16z"/><path d="m422.793 178.5h30.414v16h-30.414z" transform="matrix(.46 -.888 .888 .46 70.812 489.484)"/></g><path d="m504 400-40 40h-416l-40-40z" fill="#ccc"/><path d="m216 280h240a48 48 0 0 1 0 96h-240z" fill="#d3a126"/><path d="m456 280h-48a91.214 91.214 0 0 1 32 96h16a48 48 0 0 0 0-96z" fill="#b58518"/><path d="m344 280h-67a91.214 91.214 0 0 1 32 96h67c24-56-32-96-32-96z" fill="#b27019"/><path d="m440 328a92.94 92.94 0 0 0 -32-48h-64s56 40 32 96h64a92.046 92.046 0 0 0 0-48z" fill="#cc760e"/><path d="m344 328h16v16h-16z" fill="#cc760e"/><circle cx="56" cy="328" fill="#eaaa1b" r="48"/><path d="m48 320h16v16h-16z" fill="#cc760e"/><path d="m312 184h-64c-.287 12.209 6.023 37.005 0 56-6.764 21.331-17.452 29.425-25 40h81c32-32 8-96 8-96z" fill="#cc760e"/><path d="m399 184h-39c6.5 5.114 15.541 20.7 23 48a92.046 92.046 0 0 1 0 48h16a48 48 0 0 0 0-96z" fill="#d3a126"/><path d="m383 232c-7.459-27.3-16.5-42.886-23-48h-48s24 64-8 96h79a92.046 92.046 0 0 0 0-48z" fill="#b27019"/><path d="m344 232h16v16h-16z" fill="#cc760e"/><g opacity=".2"><path d="m399 184h-239.087l14.087 24h266.563a47.969 47.969 0 0 0 -41.563-24z" fill="#f9f6d9"/></g><g opacity=".2"><path d="m497.563 304a47.969 47.969 0 0 0 -41.563-24h-232.649l14.087 24z" fill="#f9f6d9"/></g><circle cx="159" cy="232" fill="#eaaa1b" r="48"/><path d="m151 224h16v16h-16z" fill="#cc760e"/><circle cx="216" cy="328" fill="#eaaa1b" r="48"/><path d="m208 320h16v16h-16z" fill="#cc760e"/><g opacity=".2"><path d="m48 440h71.373a239.262 239.262 0 0 1 -35.067-40h-76.306z" fill="#f9f6d9"/></g></svg>